<svg width="18" height="20" viewBox="0 0 18 20" fill="none" xmlns="http://www.w3.org/2000/svg">
<path d="M16.5 1.73145H14.25V0.981445C14.25 0.782533 14.171 0.591767 14.0303 0.451115C13.8897 0.310463 13.6989 0.231445 13.5 0.231445C13.3011 0.231445 13.1103 0.310463 12.9697 0.451115C12.829 0.591767 12.75 0.782533 12.75 0.981445V1.73145H5.25V0.981445C5.25 0.782533 5.17098 0.591767 5.03033 0.451115C4.88968 0.310463 4.69891 0.231445 4.5 0.231445C4.30109 0.231445 4.11032 0.310463 3.96967 0.451115C3.82902 0.591767 3.75 0.782533 3.75 0.981445V1.73145H1.5C1.10218 1.73145 0.720644 1.88948 0.43934 2.17079C0.158035 2.45209 0 2.83362 0 3.23145V18.2314C0 18.6293 0.158035 19.0108 0.43934 19.2921C0.720644 19.5734 1.10218 19.7314 1.5 19.7314H16.5C16.8978 19.7314 17.2794 19.5734 17.5607 19.2921C17.842 19.0108 18 18.6293 18 18.2314V3.23145C18 2.83362 17.842 2.45209 17.5607 2.17079C17.2794 1.88948 16.8978 1.73145 16.5 1.73145ZM3.75 3.23145V3.98145C3.75 4.18036 3.82902 4.37112 3.96967 4.51178C4.11032 4.65243 4.30109 4.73145 4.5 4.73145C4.69891 4.73145 4.88968 4.65243 5.03033 4.51178C5.17098 4.37112 5.25 4.18036 5.25 3.98145V3.23145H12.75V3.98145C12.75 4.18036 12.829 4.37112 12.9697 4.51178C13.1103 4.65243 13.3011 4.73145 13.5 4.73145C13.6989 4.73145 13.8897 4.65243 14.0303 4.51178C14.171 4.37112 14.25 4.18036 14.25 3.98145V3.23145H16.5V6.23145H1.5V3.23145H3.75ZM16.5 18.2314H1.5V7.73145H16.5V18.2314ZM10.125 11.1064C10.125 11.3289 10.059 11.5465 9.9354 11.7315C9.81179 11.9165 9.63608 12.0607 9.43052 12.1458C9.22495 12.231 8.99875 12.2532 8.78052 12.2098C8.56229 12.1664 8.36184 12.0593 8.2045 11.9019C8.04717 11.7446 7.94002 11.5442 7.89662 11.3259C7.85321 11.1077 7.87549 10.8815 7.96064 10.6759C8.04578 10.4704 8.18998 10.2947 8.37498 10.171C8.55999 10.0474 8.7775 9.98145 9 9.98145C9.29837 9.98145 9.58452 10.1 9.79549 10.311C10.0065 10.5219 10.125 10.8081 10.125 11.1064ZM14.25 11.1064C14.25 11.3289 14.184 11.5465 14.0604 11.7315C13.9368 11.9165 13.7611 12.0607 13.5555 12.1458C13.35 12.231 13.1238 12.2532 12.9055 12.2098C12.6873 12.1664 12.4868 12.0593 12.3295 11.9019C12.1722 11.7446 12.065 11.5442 12.0216 11.3259C11.9782 11.1077 12.0005 10.8815 12.0856 10.6759C12.1708 10.4704 12.315 10.2947 12.5 10.171C12.685 10.0474 12.9025 9.98145 13.125 9.98145C13.4234 9.98145 13.7095 10.1 13.9205 10.311C14.1315 10.5219 14.25 10.8081 14.25 11.1064ZM6 14.8564C6 15.0789 5.93402 15.2965 5.8104 15.4815C5.68679 15.6665 5.51109 15.8107 5.30552 15.8958C5.09995 15.981 4.87375 16.0032 4.65552 15.9598C4.43729 15.9164 4.23684 15.8093 4.0795 15.6519C3.92217 15.4946 3.81502 15.2942 3.77162 15.0759C3.72821 14.8577 3.75049 14.6315 3.83564 14.4259C3.92078 14.2204 4.06498 14.0447 4.24998 13.921C4.43499 13.7974 4.6525 13.7314 4.875 13.7314C5.17337 13.7314 5.45952 13.85 5.6705 14.061C5.88147 14.2719 6 14.5581 6 14.8564ZM10.125 14.8564C10.125 15.0789 10.059 15.2965 9.9354 15.4815C9.81179 15.6665 9.63608 15.8107 9.43052 15.8958C9.22495 15.981 8.99875 16.0032 8.78052 15.9598C8.56229 15.9164 8.36184 15.8093 8.2045 15.6519C8.04717 15.4946 7.94002 15.2942 7.89662 15.0759C7.85321 14.8577 7.87549 14.6315 7.96064 14.4259C8.04578 14.2204 8.18998 14.0447 8.37498 13.921C8.55999 13.7974 8.7775 13.7314 9 13.7314C9.29837 13.7314 9.58452 13.85 9.79549 14.061C10.0065 14.2719 10.125 14.5581 10.125 14.8564ZM14.25 14.8564C14.25 15.0789 14.184 15.2965 14.0604 15.4815C13.9368 15.6665 13.7611 15.8107 13.5555 15.8958C13.35 15.981 13.1238 16.0032 12.9055 15.9598C12.6873 15.9164 12.4868 15.8093 12.3295 15.6519C12.1722 15.4946 12.065 15.2942 12.0216 15.0759C11.9782 14.8577 12.0005 14.6315 12.0856 14.4259C12.1708 14.2204 12.315 14.0447 12.5 13.921C12.685 13.7974 12.9025 13.7314 13.125 13.7314C13.4234 13.7314 13.7095 13.85 13.9205 14.061C14.1315 14.2719 14.25 14.5581 14.25 14.8564Z" fill="black"/>
</svg>
