<svg width="24" height="25" viewBox="0 0 24 25" fill="none" xmlns="http://www.w3.org/2000/svg">
<path d="M19.5 3.73145H17.25V2.98145C17.25 2.78253 17.171 2.59177 17.0303 2.45112C16.8897 2.31046 16.6989 2.23145 16.5 2.23145C16.3011 2.23145 16.1103 2.31046 15.9697 2.45112C15.829 2.59177 15.75 2.78253 15.75 2.98145V3.73145H8.25V2.98145C8.25 2.78253 8.17098 2.59177 8.03033 2.45112C7.88968 2.31046 7.69891 2.23145 7.5 2.23145C7.30109 2.23145 7.11032 2.31046 6.96967 2.45112C6.82902 2.59177 6.75 2.78253 6.75 2.98145V3.73145H4.5C4.10218 3.73145 3.72064 3.88948 3.43934 4.17079C3.15804 4.45209 3 4.83362 3 5.23145V20.2314C3 20.6293 3.15804 21.0108 3.43934 21.2921C3.72064 21.5734 4.10218 21.7314 4.5 21.7314H19.5C19.8978 21.7314 20.2794 21.5734 20.5607 21.2921C20.842 21.0108 21 20.6293 21 20.2314V5.23145C21 4.83362 20.842 4.45209 20.5607 4.17079C20.2794 3.88948 19.8978 3.73145 19.5 3.73145ZM6.75 5.23145V5.98145C6.75 6.18036 6.82902 6.37112 6.96967 6.51178C7.11032 6.65243 7.30109 6.73145 7.5 6.73145C7.69891 6.73145 7.88968 6.65243 8.03033 6.51178C8.17098 6.37112 8.25 6.18036 8.25 5.98145V5.23145H15.75V5.98145C15.75 6.18036 15.829 6.37112 15.9697 6.51178C16.1103 6.65243 16.3011 6.73145 16.5 6.73145C16.6989 6.73145 16.8897 6.65243 17.0303 6.51178C17.171 6.37112 17.25 6.18036 17.25 5.98145V5.23145H19.5V8.23145H4.5V5.23145H6.75ZM19.5 20.2314H4.5V9.73145H19.5V20.2314ZM13.125 13.1064C13.125 13.3289 13.059 13.5465 12.9354 13.7315C12.8118 13.9165 12.6361 14.0607 12.4305 14.1458C12.225 14.231 11.9988 14.2532 11.7805 14.2098C11.5623 14.1664 11.3618 14.0593 11.2045 13.9019C11.0472 13.7446 10.94 13.5442 10.8966 13.3259C10.8532 13.1077 10.8755 12.8815 10.9606 12.6759C11.0458 12.4704 11.19 12.2947 11.375 12.171C11.56 12.0474 11.7775 11.9814 12 11.9814C12.2984 11.9814 12.5845 12.1 12.7955 12.311C13.0065 12.5219 13.125 12.8081 13.125 13.1064ZM17.25 13.1064C17.25 13.3289 17.184 13.5465 17.0604 13.7315C16.9368 13.9165 16.7611 14.0607 16.5555 14.1458C16.35 14.231 16.1238 14.2532 15.9055 14.2098C15.6873 14.1664 15.4868 14.0593 15.3295 13.9019C15.1722 13.7446 15.065 13.5442 15.0216 13.3259C14.9782 13.1077 15.0005 12.8815 15.0856 12.6759C15.1708 12.4704 15.315 12.2947 15.5 12.171C15.685 12.0474 15.9025 11.9814 16.125 11.9814C16.4234 11.9814 16.7095 12.1 16.9205 12.311C17.1315 12.5219 17.25 12.8081 17.25 13.1064ZM9 16.8564C9 17.0789 8.93402 17.2965 8.8104 17.4815C8.68679 17.6665 8.51109 17.8107 8.30552 17.8958C8.09995 17.981 7.87375 18.0032 7.65552 17.9598C7.43729 17.9164 7.23684 17.8093 7.0795 17.6519C6.92217 17.4946 6.81502 17.2942 6.77162 17.0759C6.72821 16.8577 6.75049 16.6315 6.83564 16.4259C6.92078 16.2204 7.06498 16.0447 7.24998 15.921C7.43499 15.7974 7.6525 15.7314 7.875 15.7314C8.17337 15.7314 8.45952 15.85 8.6705 16.061C8.88147 16.2719 9 16.5581 9 16.8564ZM13.125 16.8564C13.125 17.0789 13.059 17.2965 12.9354 17.4815C12.8118 17.6665 12.6361 17.8107 12.4305 17.8958C12.225 17.981 11.9988 18.0032 11.7805 17.9598C11.5623 17.9164 11.3618 17.8093 11.2045 17.6519C11.0472 17.4946 10.94 17.2942 10.8966 17.0759C10.8532 16.8577 10.8755 16.6315 10.9606 16.4259C11.0458 16.2204 11.19 16.0447 11.375 15.921C11.56 15.7974 11.7775 15.7314 12 15.7314C12.2984 15.7314 12.5845 15.85 12.7955 16.061C13.0065 16.2719 13.125 16.5581 13.125 16.8564ZM17.25 16.8564C17.25 17.0789 17.184 17.2965 17.0604 17.4815C16.9368 17.6665 16.7611 17.8107 16.5555 17.8958C16.35 17.981 16.1238 18.0032 15.9055 17.9598C15.6873 17.9164 15.4868 17.8093 15.3295 17.6519C15.1722 17.4946 15.065 17.2942 15.0216 17.0759C14.9782 16.8577 15.0005 16.6315 15.0856 16.4259C15.1708 16.2204 15.315 16.0447 15.5 15.921C15.685 15.7974 15.9025 15.7314 16.125 15.7314C16.4234 15.7314 16.7095 15.85 16.9205 16.061C17.1315 16.2719 17.25 16.5581 17.25 16.8564Z" fill="black"/>
</svg>
