<svg width="24" height="25" viewBox="0 0 24 25" fill="none" xmlns="http://www.w3.org/2000/svg">
<g id="Clock">
<path id="Vector" d="M12 2.98145C10.0716 2.98145 8.18657 3.55327 6.58319 4.62462C4.97982 5.69596 3.73013 7.2187 2.99218 9.00028C2.25422 10.7819 2.06114 12.7423 2.43735 14.6336C2.81355 16.5249 3.74215 18.2622 5.10571 19.6257C6.46928 20.9893 8.20656 21.9179 10.0979 22.2941C11.9892 22.6703 13.9496 22.4772 15.7312 21.7393C17.5127 21.0013 19.0355 19.7516 20.1068 18.1483C21.1782 16.5449 21.75 14.6598 21.75 12.7314C21.7473 10.1464 20.7192 7.66806 18.8913 5.84017C17.0634 4.01228 14.585 2.98418 12 2.98145ZM12 20.9814C10.3683 20.9814 8.77326 20.4976 7.41655 19.5911C6.05984 18.6845 5.00242 17.3961 4.378 15.8886C3.75358 14.3811 3.5902 12.7223 3.90853 11.122C4.22685 9.52161 5.01259 8.0516 6.16637 6.89781C7.32016 5.74403 8.79017 4.95829 10.3905 4.63997C11.9909 4.32164 13.6497 4.48502 15.1571 5.10944C16.6646 5.73386 17.9531 6.79129 18.8596 8.14799C19.7661 9.5047 20.25 11.0997 20.25 12.7314C20.2475 14.9187 19.3775 17.0157 17.8309 18.5623C16.2843 20.109 14.1873 20.979 12 20.9814ZM18 12.7314C18 12.9304 17.921 13.1211 17.7803 13.2618C17.6397 13.4024 17.4489 13.4814 17.25 13.4814H12C11.8011 13.4814 11.6103 13.4024 11.4697 13.2618C11.329 13.1211 11.25 12.9304 11.25 12.7314V7.48145C11.25 7.28253 11.329 7.09177 11.4697 6.95112C11.6103 6.81046 11.8011 6.73145 12 6.73145C12.1989 6.73145 12.3897 6.81046 12.5303 6.95112C12.671 7.09177 12.75 7.28253 12.75 7.48145V11.9814H17.25C17.4489 11.9814 17.6397 12.0605 17.7803 12.2011C17.921 12.3418 18 12.5325 18 12.7314Z" fill="black"/>
</g>
</svg>
