<svg width="30" height="30" viewBox="0 0 30 30" fill="none" xmlns="http://www.w3.org/2000/svg">
<g id="icon/fb">
<g id="fb">
<path id="Vector" d="M15 29.938C23.2174 29.938 29.8789 23.2765 29.8789 15.0591C29.8789 6.84169 23.2174 0.180176 15 0.180176C6.7826 0.180176 0.121094 6.84169 0.121094 15.0591C0.121094 23.2765 6.7826 29.938 15 29.938Z" fill="#E4E9EB"/>
<path id="Vector_2" d="M15.0001 25.2532C20.6082 25.2532 25.1545 20.6891 25.1545 15.059C25.1545 9.42887 20.6082 4.86475 15.0001 4.86475C9.39198 4.86475 4.8457 9.42887 4.8457 15.059C4.8457 20.6891 9.39198 25.2532 15.0001 25.2532Z" fill="#001A52"/>
<path id="Vector_3" d="M12.0583 13.0987H13.2735V11.9968C13.2735 11.5109 13.2864 10.7615 13.6648 10.2973C14.0632 9.80563 14.6103 9.46924 15.5511 9.46924C17.0841 9.46924 17.7299 9.67314 17.7299 9.67314L17.4261 11.353C17.106 11.2706 16.7775 11.2248 16.447 11.2164C15.9745 11.2164 15.5511 11.3743 15.5511 11.8152V13.0987H17.4924L17.3573 14.7397H15.5537V20.4398H13.2766V14.7397H12.0583V13.0987Z" fill="white"/>
</g>
</g>
</svg>
