<svg width="93" height="32" viewBox="0 0 93 32" fill="none" xmlns="http://www.w3.org/2000/svg">
<path fill-rule="evenodd" clip-rule="evenodd" d="M13.8571 31.8296C13.6 31.8296 13.5429 31.601 13.3714 31.4296C13.2 31.2582 13.0286 31.0867 12.8286 30.9439C12.4 30.6296 11.9143 30.3725 11.4 30.2582C10.4571 30.001 9.48571 30.0296 8.54286 30.0296C6.54286 30.0296 4.22857 30.3153 2.45714 29.1725C1.68571 28.6582 1.05714 27.9153 0.657143 27.0867C0.171429 26.0296 0.114286 24.9153 0.114286 23.7725C0.114286 22.7439 0.114286 21.6867 0.0857143 20.6582C0.0857143 19.8582 0.0857143 19.0582 0.0571429 18.2582C0.285714 18.4296 0.514286 18.6296 0.8 18.5153C1.08571 18.401 1.28571 18.1439 1.31429 17.8296V16.9725C1.34286 15.7439 1.34286 14.5439 1.37143 13.3153C1.37143 12.401 1.4 11.4867 1.4 10.601C1.4 10.0867 1.25714 9.80103 0.714286 9.68674C0.142857 9.57246 0.171429 9.17246 0.171429 8.68674C0.171429 7.28674 0.2 5.88674 0.2 4.51532C0.2 3.77246 0.285714 3.00103 0.228571 2.25817C0.228571 1.57246 0.171429 0.858173 0.914286 0.658173C1.34286 0.543887 2.51429 0.515316 2.57143 1.20103C2.62857 1.74389 1.91429 1.85817 1.51429 1.94389C2.45714 2.25817 3.37143 2.4296 4.37143 2.34389C5.57143 2.25817 6.54286 1.74389 7.57143 1.17246C8.48571 0.686744 9.4 0.0867441 10.4857 0.115316C11.6857 0.143887 12.8571 0.40103 14.0571 0.372458C15.2286 0.372458 16.4286 -0.0275416 17.6286 0.172458C18.7429 0.372458 19.6286 1.11532 20.6 1.6296C21.6 2.14389 22.6857 2.45817 23.8286 2.45817C24.3429 2.45817 24.8857 2.4296 25.3714 2.28674C25.5143 2.25817 25.8286 2.20103 25.8 2.05817C25.7714 1.91532 25.4 1.85817 25.2571 1.77246C24.8286 1.4296 25.1714 1.0296 25.5714 0.886744C26.0857 0.743887 26.7143 0.772458 27.1714 1.0296C27.5429 1.25817 27.5429 1.68674 27.5429 2.05817C27.5429 2.68674 27.5429 3.34389 27.5714 3.97246C27.5714 5.00103 27.6 6.0296 27.6 7.05817C27.6 7.6296 27.6 8.20103 27.6286 8.80103C27.6286 9.0296 27.7143 9.68674 27.5143 9.8296C27.2 10.0296 26.5714 9.74389 26.4 10.201C26.3143 10.4296 26.3714 10.7153 26.3714 10.9439V11.9439C26.3714 13.1725 26.4 14.4296 26.4 15.6582V16.9153C26.4 17.4296 26.2286 18.2296 26.6857 18.5725C26.8571 18.7153 27.0857 18.7153 27.2857 18.7153C27.3714 18.7153 27.6286 18.6296 27.6857 18.7153C27.7429 18.7725 27.6857 19.0296 27.6857 19.1153C27.6857 19.5439 27.6857 20.001 27.6571 20.4296C27.6286 21.601 27.6286 22.7725 27.6 23.9439C27.6571 25.4296 27.4286 26.9725 26.4857 28.2296C25.4571 29.5725 23.8571 30.1153 22.2286 30.1153C21.2286 30.1153 20.2 30.1439 19.2 30.1439C17.6286 30.1439 15.6 30.0296 14.5143 31.4582C14.2857 31.7153 14.1714 31.8296 13.8571 31.8296Z" fill="white"/>
<path d="M23.0571 24.4296C21.5143 26.3439 19.9143 28.201 18.1429 29.8582C19.2857 29.8296 20.4286 29.8867 21.5429 29.8582C22.4 29.8296 23.4286 29.8582 24.2286 29.5153C25.7429 28.8582 26.8 27.5439 27.2 25.9439C27.4857 24.8582 27.4286 23.7439 27.4286 22.6582V19.9725C25.6857 21.1153 24.3714 22.8296 23.0571 24.4296C24.5429 22.601 21.7429 26.0582 23.0571 24.4296ZM0.714286 9.60103C1.02857 9.60103 1.42857 9.14389 1.68571 8.88674C2.08571 8.48674 2.45714 8.0296 2.8 7.57246C3.51429 6.6296 4.08572 5.60103 4.91429 4.74389C5.65714 3.94389 6.54286 3.28674 7.51429 2.74389C8.02857 2.45817 8.54286 2.28674 9 1.91532C9.2 1.74389 9.4 1.54389 9.54286 1.34389C9.4 1.2296 9.34286 0.943887 9.4 0.772458C8.6 1.14389 7.91429 1.71532 7.14286 2.05817C6.31429 2.4296 5.42857 2.68674 4.54286 2.77246C3.17143 2.88674 1.4 2.97246 0.342857 1.94389C0.342857 3.2296 0.314286 4.51532 0.314286 5.8296C0.314286 6.65817 0.285714 7.45817 0.285714 8.28674C0.257143 8.68674 0.0857143 9.60103 0.714286 9.60103ZM21.4857 2.57246C20.2571 2.20103 19.2571 1.45817 18.0857 0.972459C18.0857 1.31532 17.8 1.51532 17.4857 1.60103C17.1714 1.68674 17.1714 1.6296 16.9429 1.8296C16.2571 2.48674 15.6 3.11532 14.8857 3.74389L13.6286 4.65817C13.2286 4.88674 12.4571 5.45817 12.4571 5.45817L11.6571 5.94389C11.6286 5.94389 11.6 5.94389 11.5429 5.97246C11.4571 6.0296 11.3429 6.08674 11.2571 6.17246C11.0286 6.34389 10.8 6.51532 10.6 6.68674C10.1429 7.05817 9.74286 7.48674 9.31429 7.88674L8.71429 8.57246C8.57143 8.71532 8.6 8.68674 8.71429 8.77246L8.97143 9.0296C8.82857 9.17246 8.65714 9.31532 8.51429 9.45817L6.51429 11.2296C6.08571 11.6582 5.25714 12.5439 5.25714 12.5439L3 14.601C2.65714 14.9439 2.28571 15.2582 1.91429 15.5725C1.71429 15.7439 1.45714 15.8296 1.45714 16.0867C1.45714 16.601 1.45714 17.1153 1.42857 17.6296C1.42857 17.8867 1.34286 18.1439 1.17143 18.3153C1 18.4867 0.8 18.5725 0.571429 18.5725C0.457143 18.5725 0.314286 18.5439 0.2 18.5439C0.171429 18.5725 0.2 18.6582 0.171429 18.6867C0.114286 18.8582 0.171429 19.1439 0.171429 19.3153C0.171429 21.1153 0.2 22.9153 0.2 24.7153C0.857143 24.2296 1.48571 23.7153 2.14286 23.2296C2.65714 22.8296 3.2 22.4296 3.71429 22.001C4 21.7725 4.25714 21.5439 4.54286 21.3153C4.65714 21.2296 5.05714 21.001 5.08571 20.8582L6.25714 19.801H6.28571C7.45714 18.6582 8.51429 17.401 9.48571 16.0867C9.48571 16.0867 9.62857 15.9153 10 15.401L17.8857 7.85817C19.9714 6.4296 22.0286 4.85817 23.5714 2.85817C22.8857 2.8296 22.1714 2.77246 21.4857 2.57246ZM27.5143 8.94389C27.4857 8.00103 27.4571 7.05817 27.4571 6.11532C25.7143 8.2296 23.2286 9.34389 21.2 11.0867C21.1429 11.1153 21.1143 11.1725 21.0571 11.2296L19.7429 12.3725C19.6571 12.4582 19.6 12.5725 19.5143 12.6582L19.4 12.7725C19.0857 12.6867 18.7714 12.3439 18.8857 12.0582C18.8857 12.0867 18.9143 12.0867 18.9143 12.1153C19.1429 12.5439 19.6286 11.9725 19.2286 11.8296C18.8 11.6867 18.3429 11.8296 18.0286 12.1153C17.4857 12.6296 17.4286 13.5725 17.6 14.2582L17.6857 14.5153L6.05714 26.2296C5.14286 27.2867 4.22857 28.3439 3.34286 29.4296C4.48571 29.9153 5.71429 29.8867 6.91429 29.8867C7.57143 29.8867 8.22857 29.9153 8.85714 29.9153C9.28572 29.9153 9.77143 30.0867 10.1143 29.801C10.9429 29.1153 11.8 28.4296 12.6 27.7153C13.0857 27.2867 13.5714 26.8582 14.0286 26.4296C14.2286 26.2296 14.4571 26.0582 14.6571 25.8582L19.0857 21.0296C19.6571 20.401 20.2 19.7439 20.7429 19.1153C20.7714 19.0867 20.7714 19.0867 20.7714 19.0582L21.0286 18.8582C21.0571 18.8582 21.1143 18.8582 21.2 18.801C21.4286 18.6296 21.6286 18.4582 21.8571 18.2582C22.2286 17.9153 22.5714 17.5725 22.9143 17.201C23.0857 17.001 23.2571 16.801 23.4 16.5725L23.8286 16.2867C24.6 15.6582 25.4 15.0582 26.2286 14.5153C26.3143 14.3725 26.2571 14.001 26.2571 13.8296V10.4867C26.2571 10.0582 26.2857 9.77246 26.8 9.71532C27.1143 9.65817 27.5429 9.80103 27.5714 9.34389C27.5143 9.20103 27.5143 9.08674 27.5143 8.94389Z" fill="#0E6A9D"/>
<path fill-rule="evenodd" clip-rule="evenodd" d="M19.8571 12.2867L20 12.601L20.5429 12.201L20.6 11.8296L20.0857 11.7725L19.8 12.1153" fill="#F6CE55"/>
<path d="M21.4857 12.3725C21.6435 12.3725 21.7714 12.2445 21.7714 12.0867C21.7714 11.9289 21.6435 11.801 21.4857 11.801C21.3279 11.801 21.2 11.9289 21.2 12.0867C21.2 12.2445 21.3279 12.3725 21.4857 12.3725Z" fill="#F6CE55"/>
<path d="M22.0286 12.6296C22.1864 12.6296 22.3143 12.5017 22.3143 12.3439C22.3143 12.1861 22.1864 12.0582 22.0286 12.0582C21.8708 12.0582 21.7429 12.1861 21.7429 12.3439C21.7429 12.5017 21.8708 12.6296 22.0286 12.6296Z" fill="#F6CE55"/>
<path d="M18.5143 14.9439L20.4857 14.8867L20.7143 13.4582L20.4857 13.601L20.3143 13.8296L20.3429 14.1439L20.0571 14.401L19.6571 14.1439L19.7143 13.9439H19.9429L20.0571 13.6582L19.8 13.601L19.5143 13.3153L19.3143 13.401L19.2571 13.601L18.9429 13.6296L18.9714 13.8296L19.3143 14.001L19.2286 14.2867L18.8286 14.3439L18.6571 14.201L18.7143 13.8582L18.3143 13.4867L18.2571 13.601M21.5143 14.9439L23.5143 14.8867L23.6857 13.4582L23.4857 13.601L23.3429 13.8296V14.1439L23.0857 14.401L22.6571 14.201L22.7143 13.9439H22.9714L23.0857 13.6582L22.8286 13.601L22.5143 13.3153L22.3429 13.401L22.2857 13.601L21.9143 13.6582L21.9714 13.8296L22.3143 14.001L22.2571 14.2867L21.8571 14.3439L21.6571 14.201L21.7143 13.8582L21.3429 13.4867L21.2571 13.601M20 17.0867L21.9714 17.0582L22.1714 15.6296L21.9714 15.7725L21.7429 16.0296L21.8286 16.3153L21.5429 16.5725L21.1143 16.3725L21.2 16.1153L21.4571 16.0867L21.5714 15.8296L21.2857 15.7725L21 15.4867L20.8286 15.5725L20.7429 15.7725L20.4 15.8296L20.4571 16.001L20.8 16.1725L20.7429 16.4296L20.3143 16.5153L20.1429 16.3725L20.2 16.001L19.8 15.6296L19.7429 15.7725" fill="#F6CE55"/>
<path d="M22.4857 12.8867C22.6435 12.8867 22.7714 12.7588 22.7714 12.601C22.7714 12.4432 22.6435 12.3153 22.4857 12.3153C22.3279 12.3153 22.2 12.4432 22.2 12.601C22.2 12.7588 22.3279 12.8867 22.4857 12.8867Z" fill="#F6CE55"/>
<path d="M19.9429 27.1439L19.6857 26.5725L19.8857 25.9725L19.1429 25.9439L19 25.2867L18.1143 25.4867L17.3714 26.1439L16.6857 25.8867L16.6286 24.8582L17.6 24.1153L18.1429 23.4867L18.4571 23.7153L18.8571 23.1725L18.9429 22.3153L19.3143 22.3439L19.0857 21.2582L18.2857 20.401L16.4286 19.7153L13.6 19.5439L14.4286 18.9725L13.6857 18.801L16.2571 16.4867L17.0286 16.401L17.5143 15.7725L17.3143 15.6296L16.8 15.5725L17.0857 14.7153L17.4286 14.0582L17.4 12.6296L16.5714 11.8582L16.7714 11.0867L16.6857 10.5725L14.5143 10.7153L14.2 10.0296L14.8286 9.34389L16.0571 9.51532L17.2571 9.2296L17.6286 8.51532L17.7714 7.77246L17.2 7.51532L16.3143 7.17246L16 6.60103L16.5429 6.00103L17.0286 5.45817L16.5143 5.31532L16.5429 5.00103L16.3429 4.74389V4.51532L15.8857 4.11532H15.6286L15.4857 3.91532L14.6571 3.80103L14.5714 3.48674L14.1429 3.34389L13.8286 3.51532L13.7429 3.88674L13.4286 3.8296L13.2286 4.00103L12.9429 3.94389L12.7714 4.14389L12.4286 4.20103L12.4 4.4296L12.0571 4.57246L12.0857 4.88674L11.9143 5.0296V5.37246L11.5714 5.40103L11.2857 5.65817L11.8286 5.91532L12.2571 6.28674L12.3143 6.94389L11.3714 6.71532L11.6 7.45817L12.1143 7.94389L11.2 8.28675L10.9143 8.68674L10.8286 10.1153V12.7725L8.88571 11.001L8.31429 9.68674L8.85714 9.00103L8.02857 8.20103L11.8857 4.0296L13.6857 1.8296H13.3143L11.4 3.54389L7.28571 7.45817L6.54286 6.71532L6 7.20103L6.42857 7.80103L6 8.2296L5.6 8.4296L5.45714 8.85817L5.08571 9.25817L5.28571 10.1153L5.51429 10.5153L5.82857 10.4582L6.82857 11.201L7.14286 11.4296L7.65714 12.6867L7.94286 12.7725L8.14286 13.4296L8.54286 13.7153L9.6 14.7153L10.4 15.9439V16.7725L9.94286 17.7439L9 18.7725L8.11429 20.0582L7.88571 20.8867L6.82857 21.0867L6.14286 20.5439L6.4 19.3439L7.08571 18.201L7.31429 16.9725L6.82857 16.3153L7.02857 16.001L7.31429 14.8296L7.02857 13.401L6.25714 12.8296L5.42857 12.6867L4.45714 12.7439L3.48571 13.2296L3.11429 13.8582L3.31429 15.4582L3.42857 16.0582L3.97143 15.6296L4.45714 15.3725L4.65714 14.7153L4.77143 13.8582L5.2 13.4582H6L6.57143 13.9153V14.8582L6.22857 15.8582L6.05714 15.801L5.45714 15.7153L4.94286 15.8867L4.37143 16.2582L3.42857 16.8582L3.14286 17.4867L3.02857 18.601L3.28571 18.7153L3.14286 19.0867L3.28571 19.7439L4.17143 19.3725L4.54286 18.5153V17.3153L5.02857 16.4867L5.97143 16.5153L5.02857 18.9439L5.11429 20.5439L5.82857 21.7439L7.02857 21.9725L8.02857 21.8296L8.34286 22.401L7.91429 23.3153L6.31429 23.9153L6.14286 24.8296L6.05714 25.601L6.14286 26.2582L6.6 26.1725L6.88571 27.1725L8.11429 27.6582L8.14286 27.201L8.71429 27.5153L10 27.5725L10.0571 27.1153H10.7429L10.9143 26.8296L10.5143 26.3439L10.8571 26.0582L9.91429 25.6582L9.25714 26.0582L8.4 26.201L8.22857 25.4296L8.68571 24.5725L9.48571 24.5153L10.6571 24.2867L11.1143 24.4296L11.9143 24.0582L12.3429 23.5153L12.7714 23.3153V22.601L13.0571 22.6867L12.9714 21.6582L14.4857 21.9439L15.7429 22.8296L15.8286 23.8296L14.9429 24.5153L15.0571 25.0296L14.8571 25.601L15.0571 27.001L15.5714 26.6867L15.6571 27.0582L16.0571 27.5725L18.4286 27.7439L18.3714 27.2867L18.8857 27.401L19.9429 27.1439ZM14.7429 5.40103H14.6V4.54389L15.3429 4.68674L15.8571 5.08674L16 5.51532L15.6 5.45817L15.3714 5.60103L15.4571 5.77246L15.8571 5.94389L15.3714 6.14389L14.6286 6.05817L14.8857 5.77246L15 5.54389L14.7429 5.40103ZM5.71429 19.1725L5.94286 17.9725L6.6 16.9439L6.45714 18.1725L5.71429 19.1725ZM13.3143 6.11532L12.5714 6.05817L12.5143 5.94389L12.8571 5.6296L12.7714 5.4296L12.2857 5.54389L12.4286 5.17246L12.8571 4.71532L13.7143 4.57246L13.7429 5.37246L13.4 5.45817L13.2 5.68674L13.5429 6.00103L13.3143 6.11532Z" fill="#F6CE55"/>
<path d="M6.91429 8.25817C6.94286 8.34389 7 8.4296 7 8.54389V8.57246L7.02857 8.51532C7.08571 8.4296 7.17143 8.34389 7.25714 8.31532L6.88572 8.17246L6.91429 8.25817ZM6.42857 8.88675C6.51429 8.97246 6.62857 9.0296 6.71429 9.05817H6.74286V9.0296C6.74286 8.91532 6.74286 8.80103 6.65714 8.68674C6.62857 8.77246 6.54286 8.8296 6.42857 8.88675ZM6 9.28675C6.08571 9.37246 6.28572 9.4296 6.34286 9.45817H6.37143V9.4296C6.37143 9.25817 6.34286 9.14389 6.25714 9.0296C6.2 9.20103 6.14286 9.2296 6 9.28675ZM17.7143 9.54389C17.7429 9.65817 17.7143 9.77246 17.6286 9.85817C17.5143 9.94389 17.3714 10.001 17.1714 10.001C17.0286 10.001 16.8857 9.97246 16.7714 9.97246L16.5714 9.88674C16.2 9.77246 15.7714 9.65817 15.3429 9.65817C14.9429 9.65817 14.6571 9.77246 14.4 9.97246V10.3439C14.6286 10.1153 14.9429 10.0296 15.3429 10.0296C15.6286 10.0296 15.9714 10.0867 16.3714 10.2296C16.5714 10.3153 16.9714 10.4582 17.3143 10.4582C17.5429 10.4582 17.6857 10.401 17.8 10.2867C17.9429 10.1439 18 9.97246 17.9429 9.80103C17.9714 9.68675 17.8857 9.54389 17.7143 9.54389ZM5.51429 9.91532C5.57143 9.97246 5.68571 10.0296 5.8 10.0296H5.82857C5.82857 9.94389 5.82857 9.77246 5.74286 9.68675C5.74286 9.71532 5.65714 9.85817 5.51429 9.91532Z" fill="#C24F3B"/>
<path d="M15.2571 10.601C15.3143 10.6296 15.4 10.6296 15.4571 10.6296C15.5429 10.6296 15.6286 10.601 15.7143 10.5725L15.4857 10.2867L15.2571 10.601ZM15.9143 10.601C15.9714 10.6296 16.0286 10.6296 16.1143 10.6296C16.2 10.6296 16.2571 10.601 16.3429 10.5725L16.1429 10.2867L15.9143 10.601ZM20.2286 12.601C20.3429 12.6582 20.4571 12.6867 20.6 12.6867H20.6286V12.6582C20.6286 12.5439 20.6 12.4296 20.5429 12.3153L20.2286 12.601ZM21.1714 12.3725L21.1143 12.5725H21.1429C21.2 12.5725 21.2286 12.5439 21.2857 12.5153C21.3143 12.4867 21.3429 12.4867 21.3714 12.4582C21.3143 12.4296 21.2571 12.3725 21.1714 12.3725ZM21.6 12.801L21.5714 12.8582H21.6C21.7143 12.8582 21.8571 12.801 21.9143 12.7439L21.7429 12.601C21.6857 12.6582 21.6286 12.7439 21.6 12.801ZM22.1429 12.7439L22.0286 12.9153H22.0571C22.1429 12.9153 22.2286 12.9153 22.2857 12.8582L22.1429 12.7439ZM19.4286 25.2582C19.3429 25.2582 19.2571 25.2867 19.1714 25.3153H19.1429L19.2 25.601H19.2286C19.3429 25.5153 19.6857 25.4582 19.6857 25.4296C19.6571 25.3153 19.5714 25.2582 19.4286 25.2582ZM11.0857 25.9153C11.0571 25.9153 11.0286 25.9153 10.9714 25.9439C10.9429 26.0296 10.9143 26.0582 10.9429 26.1153C10.9714 26.1725 11.0571 26.1725 11.1143 26.1725H11.2571C11.3143 26.1725 11.3714 26.1725 11.4 26.201L11.4286 26.1725C11.3143 26.001 11.2 25.9153 11.0857 25.9153ZM20.0571 26.0867C20.0571 26.201 20.0286 26.2867 19.9429 26.401C19.9429 26.401 20.0571 26.3725 20.2 26.3725C20.2857 26.3725 20.3714 26.3725 20.4286 26.401H20.4571V26.3725C20.4571 26.1439 20.2 26.0867 20.0571 26.0867ZM11.0857 26.8296C11.0857 26.9153 11.0571 26.9725 11 27.0582L11.3429 27.1725V27.0296C11.2857 26.9153 11.1714 26.8296 11.0857 26.8296ZM20.0571 26.8867C20 26.9439 19.9714 26.9725 20 27.0296C20 27.0867 20.0857 27.1439 20.1714 27.1725C20.2 27.1725 20.2286 27.201 20.2571 27.201H20.2857V27.001C20.2286 26.9725 20.1714 26.8867 20.0571 26.8867ZM10.0857 27.2296V27.5153C10.2571 27.5439 10.4 27.6296 10.4571 27.7439L10.4857 27.7725V27.7439C10.5143 27.6582 10.5143 27.5725 10.4571 27.4582C10.3714 27.3153 10.2286 27.2296 10.0857 27.2296ZM8.31429 27.3439C8.31429 27.3439 8.28571 27.4867 8.22857 27.6296C8.37143 27.6867 8.57143 27.8296 8.57143 27.8296L8.6 27.8582V27.7725C8.57143 27.6296 8.54286 27.4582 8.31429 27.3439ZM18.2571 27.7439L18.2857 27.7725C18.3714 27.8296 18.4286 27.9153 18.4571 28.001V28.0296L18.5143 28.001C18.5714 27.8867 18.5714 27.6867 18.4857 27.5725L18.2571 27.7439Z" fill="#C24F3B"/>
<path fill-rule="evenodd" clip-rule="evenodd" d="M14.0286 8.05817L14.9429 8.20103L15.0857 7.51532L14.2571 7.74389" fill="white"/>
<path d="M13.3143 6.60103C13.1714 6.48674 12.9143 6.45817 12.7714 6.60103C12.9143 6.71532 13.2 6.74389 13.3143 6.60103C13.2571 6.65817 13.2571 6.54389 13.3143 6.60103ZM14.4286 6.60103C14.2857 6.48674 14.0286 6.45817 13.8857 6.60103C14 6.74389 14.2857 6.74389 14.4286 6.60103C14.3429 6.65817 14.3429 6.54389 14.4286 6.60103ZM15.4571 6.60103C15.3143 6.48674 15.0571 6.45817 14.9143 6.60103C15.0286 6.74389 15.3143 6.74389 15.4571 6.60103C15.4 6.68674 15.3714 6.54389 15.4571 6.60103Z" fill="#5F5F5F"/>
<path d="M27.8286 18.1725C27.8286 17.8582 27.2571 17.5439 26.9714 17.6582C26.5429 17.8296 26.8571 18.5153 27.2 18.3439C27.4286 18.2296 26.6857 17.7725 27.2 17.8867C27.6286 17.9725 27.8571 18.5725 27.2571 18.5725C26.4 18.5725 26.5714 17.601 26.5714 17.0296V16.0296C26.5714 14.7725 26.5429 13.5439 26.5429 12.2867C26.5429 11.8296 26.5429 11.3439 26.5143 10.8867C26.5143 10.6582 26.4286 10.1725 26.6571 10.0582C27 9.85817 27.7714 10.1439 27.7714 9.54389V9.28675C27.7714 8.77246 27.7714 8.28675 27.7429 7.77246C27.7429 6.71532 27.7143 5.65817 27.7143 4.57246C27.7143 3.80103 27.7143 3.0296 27.6857 2.25817C27.6857 1.71532 27.7714 1.14389 27.1429 0.886744C26.6571 0.686744 26.0857 0.629601 25.5714 0.80103C25.1429 0.943887 24.7143 1.34389 25.1429 1.77246C25.2857 1.91532 25.6 2.08674 25.8286 2.08674C24.9714 2.45817 23.9714 2.48674 23.0571 2.37246C21.9429 2.2296 21.0286 1.8296 20.0857 1.25817C19.2857 0.80103 18.4857 0.229601 17.5429 0.115316C16.4 -0.0275416 15.2857 0.315316 14.1429 0.343887C12.8857 0.286744 11.7143 0.0296013 10.5143 0.00102986C9.42857 -0.0275416 8.57143 0.543887 7.65714 1.0296C6.8 1.48674 6.05714 2.00103 5.05714 2.17246C3.97143 2.34389 2.91429 2.28674 1.85714 1.94389C2.22857 1.88674 2.6 1.71532 2.65714 1.28674C2.71429 0.858173 2.25714 0.629601 1.88571 0.543887C1.45714 0.458173 0.742857 0.486744 0.428571 0.829601C0.142857 1.11532 0.142857 1.68674 0.171429 2.08674C0.257143 2.8296 0.142857 3.71532 0.142857 4.48674C0.142857 5.45817 0.142857 6.4296 0.114286 7.4296V9.17246C0.142857 9.68674 0.514286 9.71532 0.885714 9.80103C1.28571 9.88674 1.34286 10.201 1.34286 10.5153C1.34286 10.9439 1.34286 11.3439 1.31429 11.7725C1.31429 13.0296 1.28571 14.2867 1.28571 15.5439C1.28571 16.3153 1.25714 17.0582 1.25714 17.8296C1.25714 18.1439 0.942857 18.4296 0.628571 18.4296C0.0285714 18.4296 0.257143 17.7153 0.742857 17.7153C1 17.7153 0.771429 17.9153 0.657143 17.9725C0.571429 18.001 0.4 18.0582 0.457143 18.1725C0.628572 18.5153 1.11429 17.9439 1.08571 17.7439C1.02857 17.2296 0.228571 17.5153 0.0857143 17.8296C0 17.9725 0 18.1153 0 18.2296V19.2582C0 20.5153 0.0285714 21.7439 0.0285714 23.001C0.0571429 24.001 0 25.0296 0.2 26.001C0.628571 27.9725 2.17143 29.5725 4.17143 29.9725C5.37143 30.201 6.68571 30.0867 7.91429 30.1153C9.08571 30.1439 10.3714 30.0296 11.5143 30.3725C12.3714 30.6296 13.1143 31.1725 13.6286 31.9153C13.7143 31.9439 14.1143 31.9439 14.2 31.9153C14.3714 31.8296 14.5714 31.5153 14.7143 31.3439C15.8 30.1439 17.7143 30.2582 19.1714 30.2296C20.2571 30.2296 21.3429 30.201 22.4571 30.201C24.2286 30.201 25.8857 29.4296 26.8286 27.8867C27.5429 26.7439 27.7714 25.5439 27.7714 24.2296C27.8 23.001 27.8 21.801 27.8286 20.5725C27.8286 20.0296 27.8571 19.4867 27.8571 18.9439C27.8286 18.7153 27.9143 18.3725 27.8286 18.1725ZM17.2571 0.229601C18.0286 0.229601 18.8 0.715316 19.4286 1.08674C20.1429 1.51532 20.8857 1.88674 21.6286 2.17246C22.7429 2.51532 23.9714 2.6296 25.1143 2.40103C25.5143 2.31532 25.9714 2.2296 26.3143 2.00103C26.6857 1.77246 26.7143 1.0296 26.1429 1.0296C25.8286 1.0296 26.2 1.4296 26.2286 1.48674C26.2857 1.74389 25.8 1.68674 25.6571 1.65817C25.2571 1.54389 25.0857 1.14389 25.5429 0.943887C26.1143 0.743887 28 1.05817 27.1429 2.00103C26.4571 2.74389 25.1714 2.74389 24.2286 2.74389C23.0857 2.74389 21.9429 2.57246 20.8857 2.17246C19.8571 1.77246 18.9714 1.05817 17.9429 0.629601C17.6857 0.515316 16.9143 0.258173 16.8857 0.743887C16.8857 0.915316 17.0857 1.11532 17.1429 0.858173C17.1714 0.629601 17.3143 0.629601 17.5429 0.686744C17.8286 0.772458 17.8857 1.08674 17.6571 1.25817C17.4286 1.4296 17.0857 1.40103 16.8286 1.28674C16.6 1.20103 16.4 0.972458 16.4571 0.715316C16.4857 0.372458 16.9714 0.229601 17.2571 0.229601ZM11.1714 0.343887C11.1714 0.286744 11.1429 0.258173 11.1143 0.229601C12 0.372458 12.9143 0.429601 13.8286 0.429601C14.3714 0.429601 14.9429 0.372458 15.4857 0.343887C15.7714 0.315316 16.1714 0.343887 16.4571 0.229601C16.1429 0.458173 15.9143 1.0296 16.3429 1.28674C15.4857 1.14389 14.6286 1.11532 13.7429 1.11532C12.8 1.11532 11.8286 1.08674 10.8857 1.25817C11.1143 0.972458 11.3429 0.743887 11.1714 0.343887C11.2 0.429601 11.1714 0.315316 11.1714 0.343887ZM0.6 0.972458C1 0.658173 1.97143 0.543887 2.31429 1.0296C2.71429 1.68674 1.02857 1.6296 1.54286 1.20103C1.74286 1.05817 1.62857 0.858173 1.4 0.943887C1.25714 1.00103 1.17143 1.11532 1.08571 1.2296C0.8 1.65817 1.68571 2.08674 1.94286 2.20103C3.94286 2.97246 6.42857 2.20103 8.08571 1.00103C8.71429 0.543887 9.68571 0.115316 10.4857 0.258173C11.6571 0.40103 10.2857 1.77246 9.71429 1.25817C9.4 0.943887 9.88571 0.515316 10.2286 0.686744C10.3714 0.772458 10.1429 0.972458 10.3429 0.972458C10.6 0.972458 10.5714 0.60103 10.4 0.486744C10.0571 0.229601 9.4 0.629601 9.11429 0.772458C8.74286 0.972458 8.4 1.17246 8.02857 1.34389C7.54286 1.60103 7.11429 1.88674 6.6 2.08674C6.08571 2.28674 5.57143 2.4296 5.02857 2.51532C3.94286 2.71532 2.68571 2.77246 1.6 2.45817C1.22857 2.34389 0.885714 2.17246 0.628571 1.88674C0.4 1.68674 0.285714 1.2296 0.6 0.972458C0.8 0.829601 0.571429 1.00103 0.6 0.972458ZM27.4286 20.001C27.4286 20.9725 27.4286 21.9439 27.4 22.9153C27.4 24.3153 27.4 25.6867 26.8 27.001C26.4 27.8582 25.7714 28.601 24.9714 29.1153C24.1143 29.6582 23.2286 29.7725 22.2286 29.8296C21.0571 29.8867 19.8857 29.8582 18.7143 29.8582C17.8 29.8582 16.8571 29.8582 15.9714 30.1153C15.1429 30.3439 14.4 30.801 13.9143 31.5153C12.6286 29.8296 10.6 29.8296 8.65714 29.801C6.45714 29.7725 3.77143 30.1153 2.02857 28.4582C-0.0285714 26.4867 0.371429 23.4582 0.314286 20.8582C0.314286 20.3439 0.314286 19.8582 0.285714 19.3439C0.285714 19.1153 0.342857 18.8582 0.285714 18.6582C1.88571 19.001 1.57143 16.8582 1.6 15.8867C1.62857 15.0582 1.62857 14.2296 1.62857 13.4296C1.62857 12.3725 1.65714 11.3439 1.65714 10.2867C1.65714 9.65817 1.17143 9.60103 0.685714 9.48674C0.2 9.37246 0.371429 8.60103 0.371429 8.2296C0.371429 6.8296 0.4 5.40103 0.4 4.00103V3.14389C0.4 2.80103 0.457143 2.37246 0.4 2.05817C1.45714 3.11532 3.22857 2.94389 4.6 2.8296C5.48571 2.74389 6.31429 2.45817 7.11429 2.17246C7.51429 2.00103 7.91429 1.71532 8.28572 1.48674C8.65714 1.25817 9.08572 1.08674 9.4 0.829601C9.31429 1.00103 9.37143 1.28674 9.51429 1.40103C9.82857 1.68674 10.3143 1.60103 10.6857 1.54389C11.6857 1.37246 12.7429 1.34389 13.7429 1.34389C14.7429 1.34389 15.7143 1.4296 16.6857 1.54389C17 1.57246 17.2286 1.68674 17.5714 1.6296C17.8571 1.57246 18.2 1.31532 18.1714 1.00103C18.9429 1.37246 19.7429 1.80103 20.4571 2.20103C21.4857 2.68674 22.6286 2.88674 23.7429 2.94389C24.8571 3.00103 26.6571 3.14389 27.4286 2.17246C27.4571 3.77246 27.4571 5.34389 27.4857 6.94389C27.4857 7.54389 27.5143 8.17246 27.5143 8.77246V9.20103C27.5143 9.65817 27.2571 9.60103 26.9143 9.6296C26.6286 9.65817 26.2 9.74389 26.2 10.1153C26.1714 10.2296 26.2 10.3725 26.2 10.4867V12.1439C26.2 13.1153 26.1714 14.0867 26.1714 15.0867V17.9725C26.2286 18.4867 26.8571 19.0582 27.4286 18.801C27.4571 19.201 27.4571 19.601 27.4286 20.001Z" fill="#5F5F5F"/>
<path d="M25.1077 13.4552C25.022 12.798 24.6505 12.1123 23.9362 11.998C23.622 11.9409 23.1648 11.9695 23.022 12.2837C22.8505 12.5695 23.1362 12.9695 23.4505 12.9123C23.3648 12.9695 23.1648 12.9695 23.1077 13.0266C23.1362 12.8837 22.8791 12.5123 22.7077 12.7123C22.7077 12.5695 22.6505 12.4552 22.5362 12.398C22.3648 12.3123 22.3077 12.4266 22.1934 12.2837C22.1934 12.2837 21.7934 11.9123 21.7362 12.0837C21.6505 11.8837 21.5362 11.4837 21.222 11.598C21.022 11.6837 20.9934 11.9409 20.7934 12.0266C20.2505 11.998 19.7934 12.4266 20.0791 12.9123C19.7934 13.0266 19.7077 12.9409 19.4505 12.8266C19.7077 12.798 19.9362 12.5409 19.9077 12.2837C19.8505 11.9123 19.3934 11.8552 19.1077 11.8837C18.5648 11.9409 17.8505 12.3409 17.6791 12.8552C17.4791 12.6552 17.1934 12.4266 17.0791 12.1409C17.022 12.0266 17.422 11.1123 17.1648 11.0552C17.5362 11.0552 17.9648 11.0837 18.2791 10.8552C18.5934 10.598 18.6791 10.1695 18.3934 9.88374C18.2791 9.76946 17.9648 9.56946 17.7934 9.71232C17.7077 9.79803 17.7648 9.96946 17.7362 10.0552C17.5648 10.4837 16.7934 9.99803 16.5077 10.0266C17.1362 9.94089 17.8791 9.79803 17.9934 9.08374C18.022 8.91232 18.0505 8.74089 18.1077 8.56946C18.1362 8.45517 18.222 8.34089 18.2505 8.25517C18.3934 7.91232 17.4791 7.79803 17.2505 7.74089C17.022 7.65517 16.5077 7.45517 16.5077 7.14089C16.5077 6.85517 16.4791 6.8266 16.7077 6.65517C16.8505 6.54089 16.9934 6.36946 17.1362 6.25517C17.1934 6.19803 17.5362 6.0266 17.5362 5.99803C17.5934 5.79803 17.0505 5.45517 16.8791 5.65517C16.9934 5.51232 16.9362 5.28374 16.7362 5.2266C16.822 5.0266 16.7362 4.79803 16.5362 4.71232C16.3648 4.65517 16.4505 4.56946 16.2791 4.45517C16.222 4.39803 16.0505 4.36946 15.9934 4.4266C15.9362 4.28374 15.8505 4.16946 15.6791 4.16946C15.4505 4.16946 15.5934 4.25517 15.3934 4.14089C15.3077 4.11232 15.1077 4.05517 15.0791 4.16946C15.0791 3.96946 14.9648 3.74089 14.7362 3.68374C14.5934 3.6266 14.5648 3.65517 14.5934 3.48374H14.8791C14.9077 3.28374 14.7934 3.31232 14.622 3.34089C14.5648 3.34089 14.5934 3.16946 14.5934 3.11232H14.3934V3.31232H14.1077C14.0791 3.59803 14.3648 3.36946 14.3648 3.48374C14.3934 3.68374 14.3648 3.59803 14.1934 3.68374C14.0505 3.76946 13.8505 3.96946 13.9362 4.16946C13.822 4.0266 13.5077 4.11232 13.4791 4.28374C13.3077 4.14089 13.022 4.2266 12.9934 4.45517C12.8505 4.39803 12.4505 4.51232 12.5648 4.74089C12.3362 4.71232 12.0791 4.99803 12.2505 5.19803C12.0791 5.25517 11.9648 5.48374 12.0791 5.6266C11.822 5.54089 11.5077 5.74089 11.422 5.96946C11.422 6.0266 11.3648 6.05517 11.3934 6.08374C11.3934 6.11232 11.7648 6.19803 11.822 6.2266C11.8791 6.25517 12.422 6.68374 12.422 6.68374V7.05517C12.2791 7.08375 12.0505 6.99803 11.7934 6.99803C11.4791 6.96946 11.4791 7.11232 11.5362 7.39803C11.622 7.74089 11.7648 8.11232 12.1077 8.28374C11.7077 8.34089 11.222 8.59803 11.1362 9.0266C11.0791 9.25517 11.0791 9.51232 11.1077 9.76946C11.0505 9.99803 10.9648 10.198 10.9648 10.4552C10.9648 10.7695 10.9934 10.5409 10.9934 10.598C11.0505 10.7695 10.9934 10.8552 10.9648 11.0266C10.9077 11.2837 10.9362 11.4837 10.9648 11.7409C10.9648 11.9123 10.9077 12.1123 10.9648 12.2837C11.022 12.4837 11.0791 12.6837 11.0505 12.8837C10.622 12.5123 10.1934 12.1409 9.79338 11.7123C9.62195 11.5409 9.39338 11.3409 9.25052 11.1123C9.13624 10.8552 9.02195 10.598 8.93624 10.3409C8.90767 10.2552 8.76481 9.99803 8.82195 9.91232C8.96481 9.76946 9.10767 9.65517 9.25052 9.51232C9.42195 9.36946 9.19338 9.25517 9.05052 9.14089C8.8791 8.99803 8.70767 8.74089 8.50767 8.68374C9.56481 7.4266 10.7362 6.2266 11.8505 4.99803C12.2791 4.54089 12.6791 4.05517 13.0791 3.56946C13.3648 3.2266 13.622 2.91232 13.8791 2.54089C13.9362 2.45517 14.2505 2.11232 14.1077 2.0266C13.9362 1.91232 13.5648 2.19803 13.422 2.28374C13.0791 2.54089 12.7648 2.85517 12.4791 3.11232C12.1648 3.39803 11.8505 3.65517 11.5648 3.94089C10.8791 4.59803 10.222 5.34089 9.4791 5.96946C9.16481 6.2266 8.85052 6.54089 8.53624 6.8266C8.33624 7.0266 8.13624 7.2266 7.93624 7.39803C7.85052 7.48374 7.65052 7.6266 7.62195 7.71232C7.47909 7.56946 7.33624 7.36946 7.19338 7.2266C7.07909 7.11232 6.93624 6.79803 6.79338 6.94089C6.56481 7.14089 6.33624 7.36946 6.13624 7.56946C6.27909 7.74089 6.45052 7.88374 6.62195 8.05517C6.47909 8.05517 6.33624 8.14089 6.25052 8.25517C6.22195 8.28374 6.13624 8.56946 6.13624 8.56946C5.85052 8.56946 5.42195 8.99803 5.6791 9.25517C5.45052 9.2266 5.19338 9.4266 5.25052 9.68375C5.2791 9.79803 5.30767 9.91232 5.36481 10.0266C5.45052 10.1695 5.50767 10.1409 5.45052 10.2837C5.30767 10.5695 5.8791 11.2552 6.05052 10.9695C6.30767 11.2552 6.62195 11.5409 6.96481 11.6837C7.0791 11.7409 7.30767 11.7695 7.36481 11.8837C7.53624 12.1695 7.56481 12.5409 7.73624 12.8552C7.8791 13.0837 7.8791 13.4552 8.05052 13.6552C8.10767 13.5409 8.16481 13.4552 8.19338 13.3409C8.30767 13.7409 8.42195 14.1695 8.76481 14.398C8.82195 14.3409 8.82195 14.198 8.79338 14.1409C8.93624 14.398 9.05052 14.6266 9.22195 14.8552C9.42195 15.1695 9.47909 15.2266 9.56481 14.8837C10.1362 15.398 10.8791 16.3409 10.622 17.1409C10.3077 18.0266 9.53624 18.6552 8.96481 19.3695C8.65052 19.7695 8.33624 20.1695 8.19338 20.6837C8.10767 20.9695 8.16481 21.1409 7.8791 21.2837C7.59338 21.398 7.27909 21.4837 6.99338 21.3123C6.22195 20.7409 6.85052 19.8552 7.25052 19.2266C7.76481 18.4266 8.07909 17.4837 7.36481 16.6837C7.73624 15.9123 8.02195 14.8266 7.62195 14.0266C7.22195 13.1123 6.19338 12.8552 5.25052 12.9695C4.47909 13.0837 3.67909 13.2837 3.45052 14.1123C3.36481 14.398 3.33624 14.7409 3.36481 15.0266C3.39338 15.198 3.42195 15.3695 3.42195 15.5409C3.42195 15.6837 3.36481 15.9695 3.56481 15.9123C3.47909 16.198 3.56481 16.4837 3.79338 16.6552C3.96481 16.1123 4.59338 16.1123 4.93624 15.7123C5.36481 15.2266 5.13624 14.7695 5.30767 14.198C5.50767 13.5695 6.42195 13.9123 6.70767 14.2837C7.07909 14.7695 6.79338 15.5695 6.62195 16.1123C6.10767 15.9123 5.50767 15.9409 5.07909 16.2552L3.87909 17.1123C3.42195 17.4266 3.30767 17.8837 3.27909 18.4266C3.25052 18.5695 3.25052 18.7123 3.25052 18.8552C3.25052 19.1409 3.19338 19.2837 3.50767 19.1409C3.33624 19.398 3.25052 19.7695 3.33624 20.0552C3.39338 20.0266 3.53624 19.9409 3.53624 19.8837C3.53624 20.0552 3.42195 20.2266 3.50767 20.398C3.85052 20.1123 4.36481 20.1409 4.67909 19.798C4.96481 19.5123 5.07909 19.1123 5.07909 18.7123C5.07909 18.2552 4.99338 17.8266 5.13624 17.398C5.27909 16.9695 5.79338 16.8837 6.16481 16.998C5.8791 17.7695 5.45052 18.4266 5.30767 19.2837C5.13624 20.3409 5.22195 21.5409 6.19338 22.2266C6.6791 22.5695 7.2791 22.598 7.82195 22.5123C7.96481 22.4837 8.07909 22.4552 8.22195 22.398C8.45052 22.3123 8.45052 22.5409 8.4791 22.7409C8.50767 23.0266 8.45052 23.3409 8.25052 23.5409C7.8791 23.9695 7.25052 23.8266 6.79338 24.0552C6.42195 24.2552 6.19338 24.8837 6.33624 25.2837C6.36481 25.2552 6.42195 25.2552 6.45052 25.2266C6.39338 25.3695 6.36481 25.5123 6.33624 25.6837C6.33624 25.7409 6.19338 26.2266 6.39338 26.0266C6.33624 26.3123 6.33624 26.798 6.47909 27.0266C6.62195 26.9123 6.79338 26.7695 6.93624 26.6552C6.8791 27.1123 7.02195 27.6266 7.45052 27.8552C7.96481 28.1409 8.62195 28.1123 9.13624 28.4266V27.998C9.76481 28.1409 10.5934 27.798 10.9648 28.5123C11.022 28.2552 11.1648 27.8266 10.9077 27.6552C11.0505 27.5123 11.2505 27.5409 11.4505 27.5695C11.6505 27.6266 11.8505 27.798 11.8791 27.4837C11.9077 27.0266 11.422 26.9695 11.1648 26.6837C11.422 26.5409 11.7648 26.6837 12.022 26.7695C12.0505 26.5123 11.7934 26.2266 11.5648 26.1695C11.4505 26.1409 11.3077 26.1409 11.1934 26.1409C11.0505 26.0266 10.8791 25.9695 10.7077 25.9123C10.3648 25.8266 10.1362 25.8837 9.8791 26.0837C9.6791 26.2552 9.42195 26.4266 9.13624 26.4266C8.45052 26.4266 8.70767 25.2552 9.16481 25.0837C9.82195 24.8266 10.6505 25.2552 11.2505 24.8266C11.2505 24.8837 11.2791 24.9123 11.2791 24.9695C11.7077 24.8552 12.5934 24.6552 12.6791 24.1123C12.7362 24.1409 12.7648 24.198 12.7934 24.2837C13.1077 24.0266 13.2791 23.6266 13.2505 23.2266C13.2791 23.2552 13.3362 23.2837 13.3648 23.3123C13.5648 23.0266 13.5077 22.5695 13.4505 22.2266C14.3077 22.3409 15.8505 22.5409 16.0791 23.6266C16.1934 24.198 15.5648 24.2552 15.2791 24.6266C15.1077 24.8266 15.0505 25.0837 15.0505 25.3409C15.0791 25.4552 15.0791 25.598 15.222 25.4552C15.0505 25.6837 14.9648 25.998 14.9648 26.2552C14.9648 26.3123 14.9362 26.7409 15.1077 26.4837C15.222 26.8837 15.1934 27.2552 15.1934 27.6552C15.4505 27.598 15.6791 27.4837 15.8505 27.2837C15.422 27.998 16.6791 28.0552 17.0791 28.0552C17.5077 28.0552 17.9077 28.0552 18.3362 28.1409C18.6505 28.198 18.7934 28.5409 18.8505 28.8266C19.022 28.5123 19.222 28.0552 18.9648 27.7409C19.2505 27.798 19.5934 27.8837 19.9077 27.7695C20.022 27.7123 20.1077 27.598 20.2505 27.598C20.4505 27.598 20.5934 27.7409 20.7077 27.8837C20.8791 27.798 20.8505 27.4552 20.822 27.3123C20.7934 27.2266 20.7362 27.1123 20.6505 27.0552C20.5648 26.9695 20.3077 27.0266 20.2791 26.9123C20.5934 26.7695 20.822 26.9695 21.022 27.1695C21.0791 26.8837 21.1077 26.4837 20.7934 26.2837C20.4505 26.0837 19.9362 26.198 19.5648 26.1409C19.7934 25.998 20.0505 25.9409 20.3362 26.0266C20.4505 25.798 20.222 25.5123 19.9934 25.4266C19.6505 25.3123 19.422 25.5123 19.1077 25.5123C18.7934 25.5123 18.5362 25.6266 18.2791 25.8266C18.1362 25.9409 18.022 26.0837 17.9077 26.2266C17.7934 26.3123 17.7648 26.2837 17.5934 26.2837C17.3934 26.2552 17.1648 26.3123 17.1077 26.0552C17.0791 25.7409 17.022 25.4266 17.1934 25.1695C17.3648 24.9123 17.7077 24.7695 17.9648 24.6266C18.1648 24.4837 18.5077 24.2552 18.5648 24.0266C18.5934 24.1123 18.622 24.2552 18.7077 24.2552C18.8505 24.2552 18.9934 24.1123 19.0791 23.998C19.222 23.8552 19.3362 23.6552 19.3934 23.4837C19.4791 23.2552 19.422 22.998 19.5077 22.798C19.5362 22.8552 19.7077 22.8837 19.7648 22.9409C19.9362 22.4552 19.7362 21.798 19.4505 21.3695C19.1648 20.8837 18.622 20.4837 18.0791 20.2552C16.9362 19.7695 15.5077 19.7409 14.2791 19.7695C14.5077 19.598 14.7934 19.4837 15.0505 19.3123C14.9362 19.1409 14.7648 18.998 14.5648 18.998C14.7362 18.8552 14.9077 18.7409 15.0791 18.598C15.1934 18.5123 15.3077 18.398 15.4505 18.3123C15.5362 18.2552 15.7648 17.9695 15.8791 17.9695C16.0791 17.9695 16.5648 17.3695 16.6791 17.198C16.7648 17.1123 16.8505 17.0552 16.9077 16.9409C17.1077 16.9695 17.3077 16.9409 17.5077 16.8552C17.6791 16.7695 17.822 16.6266 17.8791 16.4552C17.9362 16.3409 17.9362 16.1695 18.022 16.0837C18.1648 15.9695 18.5362 16.6266 18.5934 16.6837C19.1362 17.398 19.7077 18.0837 20.3648 18.7123C20.6505 18.9695 20.9362 19.2552 21.222 19.4837C21.3648 19.598 21.3362 19.6266 21.4791 19.5123C21.6791 19.3409 21.8505 19.198 22.022 19.0266C22.5362 18.5123 23.1077 18.0266 23.5648 17.4266C23.9934 16.8552 24.422 16.2837 24.7077 15.598C24.9934 14.9409 25.1362 14.2552 25.1077 13.4552ZM22.822 12.8837C22.9648 12.8837 23.022 13.1695 22.8505 13.1695C22.7077 13.1695 22.6505 12.8837 22.822 12.8837ZM22.5934 13.2837C22.5362 13.3123 22.4791 13.3409 22.3934 13.3409C22.4505 13.2266 22.5077 13.1695 22.5934 13.2837ZM22.3077 12.598C22.5077 12.598 22.622 12.9123 22.3648 12.9123C22.1934 12.9409 22.1362 12.598 22.3077 12.598ZM22.222 13.1409C22.1362 13.198 22.022 13.2266 21.9362 13.2552C22.022 13.1123 22.1077 12.9695 22.222 13.1409ZM21.4791 12.8837C21.4791 12.8837 21.5077 12.8266 21.5077 12.798C21.5648 12.798 21.622 12.8266 21.6505 12.8837L21.4791 12.9695V12.8837ZM22.022 12.598C21.9077 12.7695 21.5934 12.6837 21.622 12.4837C21.6505 12.2266 22.1934 12.3409 22.022 12.598C22.0505 12.5695 21.9934 12.6552 22.022 12.598ZM20.6791 12.8837C20.7362 12.8552 20.7934 12.8266 20.822 12.7695C20.8791 12.8552 20.8791 12.9695 20.9077 13.0552C20.7934 13.0552 20.6791 13.0266 20.5648 12.998L20.6791 12.8837ZM20.622 12.2837C20.6505 12.2837 20.6791 12.3123 20.7362 12.3123C21.0791 12.5695 20.3648 12.7695 20.3934 12.9409C20.3648 12.8266 20.2505 12.7123 20.2505 12.5695C20.2505 12.3695 20.4505 12.2837 20.622 12.2837ZM16.9077 10.3123C17.1362 10.3695 17.3934 10.4266 17.6505 10.398C17.7934 10.398 17.9934 10.3409 18.0791 10.198C18.1077 10.1695 18.1648 9.96946 18.0791 9.94089C18.4505 9.96946 18.3362 10.5409 18.1077 10.6837C17.7648 10.9123 17.1934 10.7409 16.8505 10.598C16.5362 10.4837 16.1648 10.398 15.822 10.3695C15.5077 10.3409 14.9648 10.4266 14.7648 10.7123C14.622 9.76946 16.3934 10.198 16.9077 10.3123ZM15.0505 10.0266C15.3362 9.74089 15.7648 9.85517 16.1362 9.94089C15.822 9.91232 15.2505 9.88374 14.9648 10.1123L15.0505 10.0266ZM15.3362 11.0266C15.1934 11.0837 15.022 11.0266 14.8791 10.9695C15.1077 10.7695 15.3934 10.6837 15.6791 10.6837C15.5648 10.7695 15.4791 10.998 15.3362 11.0266C15.3648 10.998 15.2791 11.0266 15.3362 11.0266ZM15.8505 10.7123C15.9077 10.798 15.9934 10.8837 16.0505 10.9695C15.9077 11.0266 15.7648 10.998 15.5934 11.0266C15.7077 10.9123 15.7648 10.8266 15.8505 10.7123ZM16.0505 10.6837C16.1362 10.6837 16.222 10.7123 16.3077 10.7123C16.2791 10.7695 16.222 10.8266 16.1934 10.8552C16.1362 10.798 16.0791 10.7409 16.0505 10.6837ZM16.5077 10.7695C16.5648 10.8552 16.622 10.9123 16.6791 10.998C16.5648 11.0552 16.422 11.0266 16.3077 11.0266C16.3362 10.9409 16.422 10.8552 16.5077 10.7695ZM14.8791 4.14089H14.622V3.91232C14.7362 3.91232 14.822 4.0266 14.8791 4.14089ZM14.8505 4.28374C14.7934 4.6266 14.222 4.65517 14.1648 4.31232C14.3934 4.31232 14.622 4.28374 14.8505 4.28374ZM14.422 3.91232C14.422 4.16946 14.422 4.14089 14.1648 4.16946C14.1934 4.0266 14.2791 3.91232 14.422 3.91232ZM12.2791 5.51232C12.3362 5.28374 12.5362 5.45517 12.5934 5.31232C12.3934 5.28374 12.422 4.96946 12.622 4.94089C12.7362 4.91232 12.822 5.0266 12.8791 4.94089C12.8791 4.91232 12.7648 4.79803 12.8505 4.68374C12.9077 4.59803 13.022 4.6266 13.1077 4.68374C13.2791 4.8266 13.1362 4.74089 13.1934 4.59803C13.2505 4.45517 13.3648 4.4266 13.5077 4.48374C13.5648 4.51232 13.5934 4.6266 13.622 4.6266C13.7077 4.65517 13.6791 4.19803 13.9648 4.34089C14.222 4.48374 14.2791 4.79803 14.6791 4.74089C14.9362 4.68374 15.0505 4.31232 15.2791 4.31232C15.5362 4.31232 15.3648 4.51232 15.4791 4.54089C15.5362 4.54089 15.5077 4.45517 15.5362 4.45517C15.6791 4.34089 15.8791 4.36946 15.9362 4.56946C15.9934 4.76946 15.8791 4.71232 16.022 4.6266C16.1934 4.51232 16.4791 4.76946 16.3077 4.91232C16.3934 5.0266 16.422 4.79803 16.5934 4.91232C16.9077 5.08374 16.5648 5.19803 16.5648 5.31232C16.5648 5.36946 16.7362 5.31232 16.7934 5.36946C17.022 5.56946 16.6791 5.8266 16.5648 5.96946C16.3934 5.25517 15.9077 4.91232 15.1934 4.91232C14.9648 4.91232 14.9362 4.88374 14.9362 5.11232C14.9362 5.31232 14.9362 5.54089 14.9648 5.74089C14.8791 5.4266 14.3648 5.34089 14.3077 5.71232V5.19803C14.3077 4.88374 14.3648 4.85517 14.022 4.85517C13.3362 4.85517 12.7648 5.19803 12.6505 5.91232C12.422 5.85517 12.222 5.68374 12.2791 5.51232C12.3077 5.45517 12.2505 5.59803 12.2791 5.51232ZM15.5648 5.96946C15.5362 6.16946 15.7648 6.31232 15.9362 6.39803C15.6791 6.48374 15.3934 6.4266 15.1077 6.39803C15.3077 6.19803 15.5648 6.0266 15.2791 5.79803C15.2505 5.76946 14.9934 5.68374 14.9934 5.71232V5.08374C14.9934 5.0266 15.3362 5.05517 15.3648 5.08374C15.7934 5.14089 16.022 5.39803 16.1362 5.79803C15.9648 5.79803 15.7648 5.85517 15.5648 5.96946C15.7077 5.88374 15.5648 5.99803 15.5648 5.96946ZM13.4505 6.0266C13.3077 6.11232 13.622 6.36946 13.7077 6.39803C13.4791 6.51232 13.1648 6.45517 12.9362 6.39803C13.3934 6.19803 13.2791 5.6266 12.7934 5.85517C12.822 5.59803 12.9648 5.36946 13.1648 5.2266C13.422 5.05517 13.6791 5.14089 13.9362 5.08374C13.9362 5.25517 13.9648 5.4266 13.9648 5.59803C13.9934 5.76946 13.5934 5.85517 13.4505 6.0266ZM12.4791 6.48374C12.4505 6.39803 12.4791 6.31232 12.3934 6.25517C12.2505 6.28374 12.2505 6.36946 12.1362 6.25517C12.0791 6.16946 11.8505 5.96946 11.7362 5.99803C11.9648 5.68374 12.2505 5.96946 12.3934 6.14089C12.5648 6.34089 12.8505 5.71232 13.0791 6.0266C13.0505 6.14089 12.9362 6.19803 12.822 6.2266C12.7934 6.2266 12.622 6.25517 12.5934 6.28374C12.5648 6.39803 12.622 6.51232 12.7648 6.56946C13.1077 6.65517 14.2791 6.8266 14.222 6.19803C14.1077 6.19803 14.022 6.28374 13.8791 6.28374C13.7077 6.28374 13.5648 6.08374 13.7362 5.99803C13.9648 5.85517 14.222 6.2266 14.3648 6.08374C14.2791 5.96946 14.3077 5.54089 14.5362 5.74089C14.6791 5.85517 14.5934 6.0266 14.5077 6.11232C14.7648 6.19803 14.9648 5.74089 15.222 6.08374C15.1934 6.19803 15.1077 6.25517 15.022 6.28374C14.9077 6.34089 14.7648 6.19803 14.6791 6.2266C14.5934 6.85517 16.3362 6.91232 16.3362 6.36946C16.3077 6.28374 15.6791 6.31232 15.7648 6.08374C15.9362 5.88374 16.3362 6.08374 16.3934 6.31232C16.5362 6.11232 16.9362 5.71232 17.1934 5.99803C17.0791 6.0266 16.9362 6.16946 16.8505 6.25517C16.7934 6.31232 16.7934 6.45517 16.7077 6.45517C16.5648 6.4266 16.5362 6.36946 16.4791 6.51232C16.2791 6.94089 15.6505 6.79803 15.2505 6.79803H13.622C13.3648 6.71232 12.622 6.85517 12.4791 6.48374C12.5648 6.68374 12.4505 6.45517 12.4791 6.48374ZM12.6791 6.85517H16.2505C16.1648 6.91232 16.1077 6.96946 16.022 7.05517C16.1077 7.11232 16.1934 7.19803 16.2791 7.25517C15.0791 7.25517 13.9077 7.2266 12.7077 7.2266C12.822 7.05517 12.9077 6.94089 12.6791 6.85517ZM11.9648 7.74089C11.9077 7.59803 11.822 7.4266 11.7648 7.28374C12.0791 7.36946 12.422 7.48374 12.7362 7.56946C12.9077 7.6266 12.9077 7.36946 13.022 7.36946H13.3077C14.1362 7.36946 14.9934 7.39803 15.822 7.39803C16.1077 7.39803 16.3077 7.34089 16.5362 7.59803C16.7934 7.88374 17.022 7.94089 17.3934 8.05517C17.6505 8.14089 18.222 8.19803 17.8505 8.54089C17.7362 8.65517 17.4791 8.48374 17.3934 8.56946C17.2505 8.88374 17.6791 8.79803 17.7934 8.79803C17.8505 10.0552 16.1934 9.68374 15.4505 9.54089C14.7934 9.54089 14.1934 10.0552 14.3362 10.7695C14.422 11.1409 14.8505 11.3695 15.1934 11.2266C15.5077 11.1123 15.9362 11.1409 16.2791 11.198C16.5077 11.2266 16.7934 10.9695 16.9077 11.198C16.9648 11.3409 16.9077 11.6266 16.822 11.7695C16.6791 11.9123 16.5077 11.8552 16.3362 11.9123C16.4791 11.8266 16.622 11.5409 16.3648 11.5409C16.0505 11.7695 15.822 11.998 15.422 11.9123C15.4791 11.8837 15.5648 11.798 15.5362 11.7123C15.5362 11.4552 15.2791 11.7409 15.222 11.7695C15.0505 11.8837 14.8505 11.9123 14.622 11.8837C14.422 11.8552 14.3362 11.7409 14.1648 11.6552C14.1362 12.2266 14.7934 12.2837 15.222 12.1409C15.2791 12.1409 15.3648 12.2266 15.422 12.2266C15.5934 12.2837 15.7648 12.2552 15.9362 12.2266C16.0791 12.1695 16.0791 12.1409 16.2505 12.1695C16.3934 12.198 16.5934 12.2266 16.7077 12.1695C16.6791 12.6552 17.2505 12.8552 17.4505 13.2266C17.5648 13.4266 17.5648 13.7123 17.5362 13.9409C17.5362 14.0552 17.5077 14.1695 17.4505 14.2837C17.3934 14.4552 17.222 14.5695 17.1648 14.6837C17.1077 14.5695 17.222 14.4266 17.1362 14.3123C17.0505 14.4837 16.9362 14.6552 16.7648 14.7695C17.0505 14.0552 16.422 13.598 16.422 12.9123C15.9648 12.9695 16.422 13.8837 16.4505 14.0552C16.5648 14.5123 16.3934 14.9123 15.9077 15.0266C15.9362 14.9695 16.1077 14.6837 15.9934 14.6266C15.8505 14.8552 15.7077 14.998 15.422 15.0552C15.6505 14.7409 15.5934 14.398 15.5077 14.0552C15.4505 13.8266 15.3934 13.598 15.4505 13.3695C15.4791 13.1695 15.622 13.1695 15.6791 13.0266C15.4791 12.7695 15.222 13.2266 15.1934 13.3695C15.1648 13.5409 15.1648 13.7123 15.1648 13.8552C15.1648 14.0552 15.1934 14.2837 15.1934 14.4837C15.1934 14.598 15.1648 14.7409 15.1077 14.8552C15.0505 14.9409 14.8505 14.9695 14.7934 15.0266C14.822 14.8837 14.8791 14.7695 14.8505 14.6266C14.7362 14.6837 14.6505 14.8266 14.5648 14.9123C14.422 15.0266 14.3362 14.998 14.1648 15.0552C14.5077 14.7695 14.4505 14.3123 14.422 13.9123C14.3934 13.6837 14.3934 13.4552 14.5077 13.2552C14.5934 13.0837 14.7362 12.8837 14.422 13.0552C13.5362 13.5123 14.6791 14.798 13.5362 15.0266C13.5934 14.9409 13.622 14.798 13.622 14.6837C13.5362 14.7123 13.4505 14.8266 13.3648 14.8837C13.222 14.9695 13.1362 14.9409 12.9934 14.9409C13.3934 14.798 13.4791 14.3695 13.4505 14.0266C13.4505 13.8837 13.422 13.6837 13.4505 13.5409C13.4505 13.4552 13.6791 12.998 13.6791 12.998C13.1077 12.998 13.1362 13.7123 13.1077 14.0837C13.0505 14.5695 12.822 14.7409 12.3648 14.798C12.3934 14.7409 12.5077 14.6552 12.4791 14.5695C12.3077 14.6266 12.0505 14.6552 11.8791 14.5409C12.3648 14.5409 12.422 13.8837 12.3648 13.5409C12.3648 13.3695 12.422 13.1409 12.5362 12.9695C12.5077 13.0266 12.7648 12.798 12.622 12.9123C12.7362 12.798 12.6505 12.6837 12.5077 12.7409C12.222 12.8552 12.1648 13.3409 12.0791 13.5695C12.022 13.798 11.9934 14.0552 11.822 14.198C11.622 14.398 11.2505 14.3695 10.9934 14.2552C11.4791 14.2266 11.622 13.4266 11.5648 13.0552C11.2791 13.3123 11.3648 14.198 10.7934 14.0837C10.6791 14.0552 10.622 13.9695 10.5648 13.8837C10.9934 13.998 11.2505 13.398 11.1362 13.0552C11.0791 12.7695 11.1648 12.4552 11.4791 12.3123C11.9077 12.1123 12.5077 12.2266 12.822 11.798C13.0505 11.5409 13.0791 11.1695 13.1077 10.798C13.1362 9.99803 13.1362 9.19803 13.1077 8.36946C13.3648 8.48374 13.6505 8.39803 13.9077 8.45517C14.1934 8.51232 14.3934 8.74089 14.6791 8.79803C14.9934 8.85517 16.022 8.71232 15.7077 8.16946C15.9648 8.16946 16.5362 8.14089 16.3362 7.76946C16.1934 7.56946 15.7648 7.36946 15.5648 7.59803C15.7648 7.71232 15.9648 7.65517 16.1077 7.88374C15.7362 8.11232 15.3648 7.79803 14.9934 7.8266C14.6505 8.08374 14.222 8.25517 13.7648 8.25517C13.5648 8.25517 13.3648 8.2266 13.1934 8.14089C12.9934 8.05517 12.9648 7.91232 12.7648 8.08374C12.5934 8.34089 12.1934 8.05517 11.9648 7.74089ZM15.1648 16.2552C15.3077 16.8837 15.0791 17.398 14.4505 17.5695C14.5934 17.4837 14.622 17.3123 14.7077 17.198C14.7077 17.198 14.7077 17.1695 14.6791 17.1695C14.5362 17.3695 14.3362 17.5123 14.0791 17.4837C14.5077 17.198 14.5362 16.6837 14.5362 16.2266C14.5362 15.998 14.5077 15.7409 14.5648 15.5123C14.5934 15.2837 14.622 15.3123 14.822 15.3695C14.9648 15.398 15.1362 15.398 15.222 15.2837C15.1077 15.5695 15.1362 15.9123 15.1648 16.2552ZM14.3077 15.2266C13.9362 15.9695 14.5934 17.1409 13.422 17.3123C13.5362 17.2266 13.7362 17.1123 13.7362 16.9409C13.5362 17.1695 13.3362 17.1695 13.0791 17.198C13.2505 17.1123 13.422 17.0837 13.4791 16.8552C13.5934 16.4837 13.5077 16.1123 13.4791 15.7123C13.4791 15.5409 13.4505 15.3409 13.5077 15.1695C13.5362 15.1409 13.6791 15.1695 13.7362 15.1695C13.9362 15.1409 13.9648 15.0837 14.1362 15.1695C14.1934 15.198 14.2505 15.198 14.3077 15.2266ZM12.222 16.7695C12.1077 16.7695 11.9934 16.7123 11.9077 16.6552C12.7934 16.798 12.5362 15.4266 12.4791 14.9695C12.6791 14.9695 12.822 14.9409 12.9934 15.0552C13.022 15.0837 13.222 15.1123 13.222 15.1409C13.2505 15.2552 13.1934 15.4552 13.1934 15.598C13.1934 15.9409 13.3362 16.4266 13.1648 16.7409C13.0505 16.9695 12.5648 17.0552 12.3362 16.9123C12.4505 16.8552 12.5648 16.7695 12.622 16.6552C12.4791 16.7123 12.3648 16.7695 12.222 16.7695ZM11.7648 16.3123C11.8791 16.2552 11.9362 16.1409 11.9077 16.0266C11.822 16.0552 11.6505 16.1123 11.5934 16.1409C11.8505 15.998 11.7648 15.7409 11.7077 15.5123C11.622 15.198 11.5934 14.9409 11.6505 14.6266C11.7362 14.7409 11.8505 14.8266 11.9934 14.8552C12.1077 14.8837 12.1934 14.8266 12.1934 14.9695C12.1934 15.0837 12.1934 15.198 12.222 15.2837C12.2505 15.5695 12.3362 15.9123 12.222 16.1695C12.1077 16.3695 11.7648 16.3409 11.7648 16.3123ZM12.1362 9.91232C11.822 9.96946 11.4505 10.0552 11.3362 10.3695C11.222 9.99803 11.5648 9.6266 11.8791 9.48374C12.1077 9.36946 12.3648 9.31232 12.622 9.2266C12.7362 9.19803 12.9077 9.16946 12.9648 9.11232C12.8791 9.31232 12.7077 9.36946 12.5077 9.45517C12.5934 9.51232 12.9077 9.54089 12.9934 9.4266C12.7934 9.74089 12.4505 9.85517 12.1362 9.91232C12.4505 9.85517 12.022 9.94089 12.1362 9.91232ZM15.1648 8.31232C15.1362 8.36946 15.1362 8.48374 15.222 8.54089C15.022 8.54089 14.7934 8.51232 14.622 8.39803C14.7934 8.28374 15.1648 7.94089 15.3362 8.05517C15.1934 8.11232 15.1648 8.19803 15.1648 8.31232ZM11.5648 8.91232C11.8791 8.4266 12.5077 8.74089 12.9362 8.45517C12.8505 8.68375 12.5648 8.59803 12.422 8.76946C12.5934 8.8266 12.822 8.76946 12.9934 8.76946C12.5934 9.16946 11.7077 8.88375 11.422 9.45517C11.3077 9.25517 11.422 9.05517 11.5648 8.91232C11.7362 8.6266 11.4791 8.99803 11.5648 8.91232ZM11.422 10.598C11.5648 10.3409 11.822 10.1695 12.1077 10.1123C12.3362 10.0837 12.7077 10.0837 12.9077 9.94089C12.822 10.1695 12.5077 10.1695 12.3934 10.3695C12.5077 10.398 12.8791 10.4266 12.9934 10.3409C12.822 10.7409 12.422 10.798 12.0505 10.8552C11.8791 10.8837 11.6791 10.9409 11.5362 11.0552C11.4791 11.1123 11.3648 11.2552 11.2791 11.2552C11.2505 11.0837 11.2791 10.7695 11.422 10.598ZM11.3077 11.7409C11.5648 10.998 12.3934 11.198 12.9077 10.798C12.8791 11.1409 12.5077 11.1123 12.3077 11.3123C12.422 11.3695 12.7077 11.398 12.822 11.3123C12.8505 11.998 11.5362 11.7695 11.2505 12.1695C11.2505 12.0266 11.2505 11.8552 11.3077 11.7409ZM7.25052 8.28374C6.96481 8.11232 6.73624 7.79803 6.47909 7.59803C6.65052 7.45517 6.82195 7.14089 6.99338 7.34089C7.22195 7.6266 7.42195 7.88375 7.6791 8.16946C8.65052 7.11232 9.70767 6.16946 10.7077 5.16946L12.1648 3.79803C12.422 3.56946 12.7077 3.31232 12.9648 3.11232C13.1934 2.91232 13.5648 2.4266 13.8505 2.34089C12.8505 3.59803 11.6791 4.79803 10.5934 5.99803C10.0791 6.56946 9.56481 7.11232 9.02195 7.68374C8.8791 7.8266 8.59338 8.31232 8.42195 8.31232C8.36481 8.31232 8.0791 8.68374 8.10767 8.68374C8.25052 8.8266 8.39338 8.96946 8.56481 9.08374C8.67909 9.19803 8.82195 9.39803 8.96481 9.4266C8.8791 9.48374 8.6791 9.6266 8.65052 9.74089C8.42195 9.11232 7.85052 8.56946 7.25052 8.28374ZM6.6791 10.0837C6.59338 10.198 6.4791 10.2837 6.39338 10.398C6.36481 10.2837 6.39338 9.99803 6.30767 9.91232C6.42195 9.96946 6.53624 10.0552 6.6791 10.0837ZM6.10767 10.1409C6.13624 10.2266 6.16481 10.3409 6.13624 10.4266C6.05052 10.4266 5.96481 10.3695 5.85052 10.3409C5.96481 10.3123 6.05052 10.2266 6.10767 10.1409C6.13624 10.198 6.07909 10.198 6.10767 10.1409ZM6.50767 8.51232C6.62195 8.14089 6.96481 8.71232 6.90767 8.94089C6.82195 9.34089 6.42195 8.76946 6.50767 8.51232C6.53624 8.4266 6.45052 8.68374 6.50767 8.51232ZM6.59338 9.51232C6.65052 9.59803 6.6791 9.74089 6.6791 9.85517C6.56481 9.8266 6.42195 9.79803 6.33624 9.71232C6.47909 9.68375 6.56481 9.6266 6.59338 9.51232C6.65052 9.6266 6.56481 9.65517 6.59338 9.51232ZM6.93624 9.88374C6.90767 9.79803 6.90767 9.68374 6.90767 9.59803C6.99338 9.6266 7.07909 9.65517 7.13624 9.68375C7.19338 9.71232 7.22195 9.25517 7.25052 9.2266V9.54089C7.2791 9.71232 7.07909 9.76946 6.93624 9.88374C7.05052 9.79803 6.93624 9.79803 6.93624 9.88374ZM7.0791 9.4266C6.96481 9.39803 6.8791 9.34089 6.79338 9.31232C6.82195 9.31232 7.02195 9.19803 7.02195 9.14089C7.05052 9.2266 7.0791 9.31232 7.0791 9.4266C7.0791 9.36946 6.99338 9.39803 7.0791 9.4266ZM7.33624 8.96946C7.33624 8.85517 7.30767 8.74089 7.25052 8.65517C7.36481 8.68374 7.45052 8.74089 7.56481 8.76946C7.47909 8.76946 7.36481 8.85517 7.33624 8.96946C7.36481 8.85517 7.33624 8.85517 7.33624 8.96946ZM6.13624 8.91232C6.42195 8.91232 6.62195 9.4266 6.27909 9.54089C5.99338 9.65517 5.70767 8.99803 6.13624 8.91232C6.27909 8.91232 5.99338 8.94089 6.13624 8.91232ZM5.56481 9.94089C5.45052 9.65517 5.65052 9.39803 5.8791 9.71232C6.16481 10.0552 5.73624 10.2837 5.56481 9.94089ZM5.90767 10.8552C5.82195 10.798 5.53624 10.5695 5.76481 10.5123C5.82195 10.4837 6.02195 10.598 6.05052 10.6266C6.13624 10.6266 5.96481 10.798 5.90767 10.8552ZM5.82195 16.6552C4.93624 16.6552 4.73624 17.4552 4.76481 18.1695C4.79338 18.598 4.79338 19.0266 4.59338 19.398C4.50767 19.5409 4.39338 19.6837 4.25052 19.798C4.13624 19.8837 3.73624 19.8837 3.70767 19.9695C3.90767 19.6837 4.45052 19.398 4.19338 18.9695C4.10767 19.2837 3.82195 19.4837 3.59338 19.6837C3.56481 19.2837 4.53624 18.398 3.99338 18.0552C3.93624 18.198 3.90767 18.3695 3.85052 18.5123C3.79338 18.6837 3.59338 18.798 3.53624 18.9409C3.45052 18.6266 3.50767 18.198 3.59338 17.8837C3.70767 17.4837 4.05052 17.3123 4.36481 17.1123C4.76481 16.8837 5.13624 16.4837 5.56481 16.3123C5.85052 16.2266 6.22195 16.3123 6.47909 16.4266C6.42195 16.5409 6.33624 16.6552 6.30767 16.7695C6.13624 16.7123 5.99338 16.6552 5.82195 16.6552ZM8.59338 27.998C8.62195 27.9695 8.70767 27.8266 8.6791 27.7695C8.8791 27.8837 8.82195 28.0552 8.93624 28.198C8.82195 28.1409 8.70767 28.0552 8.59338 27.998C8.73624 28.0552 8.65052 27.9123 8.59338 27.998ZM10.6791 27.998C10.4505 27.8266 10.4505 27.9409 10.422 27.6552C10.7077 27.6837 10.7362 27.9123 10.822 28.1409C10.7934 28.0837 10.7362 28.0552 10.6791 27.998ZM11.3362 27.4552C11.3934 27.398 11.422 27.3409 11.4505 27.2552C11.5934 27.2837 11.6791 27.398 11.6791 27.5409L11.3362 27.4552ZM11.7648 26.5695C11.6505 26.4552 11.3934 26.6266 11.3077 26.4837C11.2505 26.398 11.3362 26.3409 11.422 26.3409C11.5648 26.3695 11.6791 26.4837 11.7648 26.5695C11.7362 26.5409 11.6505 26.4266 11.7648 26.5695ZM18.822 28.4266C18.822 28.3123 18.7077 28.198 18.622 28.1695C18.6791 28.1123 18.7362 28.0837 18.822 28.0266C18.8791 28.1409 18.8505 28.3123 18.822 28.4266C18.8505 28.3123 18.7934 28.3409 18.822 28.4266ZM20.5077 27.5695C20.3934 27.5123 20.2791 27.4552 20.3934 27.3409C20.5077 27.3695 20.5934 27.4837 20.5934 27.6266C20.5648 27.598 20.5362 27.5695 20.5077 27.5695C20.5362 27.5695 20.4505 27.5409 20.5077 27.5695ZM20.7934 26.798C20.6505 26.7695 20.4505 26.7409 20.3077 26.798C20.3934 26.7123 20.422 26.6266 20.3648 26.5123C20.5362 26.5409 20.7648 26.598 20.7934 26.798C20.7648 26.5695 20.7362 26.7695 20.7934 26.798ZM19.7648 25.7123C19.8505 25.7123 19.9648 25.7409 19.9934 25.8266C19.8505 25.8552 19.6505 25.8837 19.5648 25.9695C19.5362 25.7695 19.4791 25.7123 19.7648 25.7123ZM14.5934 20.198C16.4505 20.198 19.0505 20.2837 19.4791 22.5695C19.222 22.3695 18.9934 22.1409 18.7362 21.9695C18.7077 22.2266 18.9934 22.6552 19.0791 22.9123C19.1648 23.2552 19.1077 23.6266 18.822 23.9123C18.822 23.5409 18.6791 23.1123 18.3077 22.9409C18.422 23.4266 18.5362 23.998 18.0791 24.3123C17.7934 24.5123 17.3077 24.6552 17.0791 24.9409C16.9648 25.1123 16.9077 25.3123 16.8505 25.4837C16.7648 26.1123 16.8791 26.8266 17.6505 26.7409C17.9934 26.7123 18.0791 26.5409 18.2791 26.3409C18.422 26.198 18.5934 26.0837 18.7934 25.998C18.9362 25.9409 19.1362 25.9695 19.2791 25.9123C19.3648 26.2837 18.622 26.3695 18.6505 26.7123C19.1362 27.0266 19.622 26.3695 20.1362 26.6552C19.822 27.1409 19.1648 26.9409 18.7362 27.198C18.8791 27.3409 19.1077 27.398 19.3362 27.3695L19.8505 27.2837C20.0505 27.2552 20.022 27.3695 20.1648 27.4266C19.9648 27.4266 19.822 27.5409 19.6505 27.6266C19.4505 27.7409 19.3362 27.6837 19.1362 27.6266C18.7077 27.4837 18.1648 27.2837 17.7934 27.6266C18.022 27.9123 18.5934 27.5695 18.6791 28.0266C18.3362 27.9123 17.7934 27.8837 17.422 27.9123C17.0505 27.9409 16.5648 27.9695 16.2505 27.6837C16.0791 27.5123 16.1934 26.798 16.222 26.5695C15.8791 26.5409 15.7934 27.2552 15.4791 27.3695C15.4505 26.998 15.3934 26.7123 15.6791 26.4266C15.7362 26.3695 16.0791 26.0837 15.9648 25.998C15.822 25.998 15.7077 26.1123 15.5648 26.1695C15.4791 26.198 15.3648 26.198 15.2791 26.2266C15.3077 26.0837 15.3077 25.9409 15.3934 25.8266C15.4791 25.6837 15.5934 25.6837 15.7077 25.5695C15.9362 25.4266 16.1362 25.2552 16.1934 24.9695C16.0505 24.7695 15.4791 25.2266 15.3934 25.2837C15.3362 24.7695 15.7648 24.6837 16.1077 24.4837C16.4505 24.2552 16.4505 23.7695 16.3362 23.398C16.0505 22.5409 15.0505 22.1409 14.222 22.0266C13.9648 21.998 13.3934 22.0552 13.2505 21.8552C13.1362 21.6837 13.022 21.5123 12.9077 21.3695C12.8791 21.3123 12.7077 21.1409 12.7077 21.0837C12.8505 20.9123 13.022 20.7409 13.1934 20.5695C13.5934 20.1695 14.022 20.198 14.5934 20.198ZM13.5934 19.7409C13.8791 19.6266 14.1077 19.4837 14.3934 19.4266C13.9362 19.7695 13.3934 19.9695 12.9648 20.398C13.1648 20.1695 13.3648 19.9409 13.5934 19.7409ZM14.3362 18.798C13.6505 19.3123 12.9648 19.8266 12.5362 20.5695C12.4505 20.4552 12.5077 19.8266 12.3648 19.9409C12.0791 20.1695 12.0791 20.6552 12.222 20.9409C12.3648 21.2837 12.6505 21.5409 12.8791 21.8266C13.1648 22.1695 13.2505 22.4552 13.222 22.8552C13.0791 22.6266 12.7077 22.3123 12.422 22.4266C12.7077 22.8552 13.1648 23.1123 12.9362 23.7123C12.8505 23.4837 12.7077 23.2552 12.4791 23.1409C12.422 23.1123 12.222 22.998 12.1648 23.0837C12.1362 23.1409 12.3077 23.3123 12.3362 23.398C12.6505 23.9695 12.222 24.4552 11.6505 24.598C11.7934 24.3409 11.9934 23.7409 11.5362 23.6266C11.7077 24.6266 10.6505 24.7409 9.93624 24.7409C9.59338 24.7409 9.22195 24.7409 8.8791 24.8552C8.45052 24.998 8.42195 25.5695 8.42195 25.9409C8.42195 26.198 8.39338 26.4266 8.65052 26.598C8.96481 26.798 9.25052 26.7695 9.59338 26.6552C9.82195 26.5695 9.96481 26.3695 10.1362 26.2837C10.4505 26.0552 10.7934 26.2552 11.0791 26.4552C10.8791 26.5123 10.7934 26.6837 10.5648 26.6837C10.3077 26.6837 10.0505 26.7123 9.82195 26.8266C9.90767 27.198 10.6505 26.9123 10.9077 26.998C11.022 27.0266 11.2791 27.2266 11.1362 27.3409C10.9648 27.4837 10.7362 27.4266 10.5362 27.3695C10.2505 27.3123 9.70767 27.0552 9.59338 27.4552C9.85052 27.3695 10.1934 27.5123 10.2505 27.7695C10.022 27.7123 9.79338 27.7695 9.56481 27.7695C9.33624 27.7695 9.16481 27.6552 8.96481 27.5409C8.76481 27.4266 8.4791 27.5123 8.25052 27.4552C8.16481 27.598 8.56481 27.7123 8.4791 27.8552C8.0791 27.798 7.47909 27.6266 7.33624 27.198C7.19338 26.798 7.47909 26.3409 7.30767 25.9409C7.07909 26.1409 6.8791 26.3409 6.6791 26.5409C6.50767 26.0266 7.50767 25.6552 7.19338 25.2266C7.10767 25.3123 7.05052 25.4266 6.99338 25.5123C6.93624 25.598 6.8791 25.6552 6.79338 25.7123C6.76481 25.7409 6.59338 25.7409 6.56481 25.7695C6.56481 25.5409 6.62195 25.3123 6.85052 25.198C7.02195 25.1123 7.39338 24.9123 7.19338 24.6552C7.02195 24.7409 6.8791 24.8552 6.70767 24.8837C6.65052 23.9409 7.96481 24.1409 8.50767 23.7409C8.93624 23.4266 8.99338 22.9695 8.8791 22.5123C8.79338 22.1123 8.76481 21.798 8.33624 21.9409C7.85052 22.0837 7.27909 22.3123 6.76481 22.1123C6.36481 21.9695 6.05052 21.598 5.82195 21.2552C5.33624 20.398 5.50767 19.3409 5.82195 18.4552C6.25052 17.2552 8.19338 14.798 6.56481 13.7695C5.79338 13.2837 4.96481 13.6266 4.90767 14.5123C4.85052 14.9409 4.90767 15.2837 4.70767 15.5695C4.47909 15.9409 3.96481 15.8266 3.76481 16.2552C3.56481 15.8552 4.05052 15.5695 4.2791 15.3409C4.47909 15.1123 4.45052 14.8837 4.39338 14.5695C4.25052 14.6552 4.13624 14.9695 4.02195 15.1409C3.90767 15.2552 3.76481 15.2837 3.67909 15.4552C3.47909 14.998 3.79338 14.8837 4.02195 14.5695C4.13624 14.4552 4.47909 14.0266 4.16481 13.9123C4.07909 14.1409 3.8791 14.4552 3.65052 14.5409C3.47909 13.1695 5.79338 12.9695 6.65052 13.4266C8.13624 14.198 7.30767 15.998 6.82195 17.1123C6.56481 17.6266 6.25052 18.1409 6.0791 18.7123C5.99338 19.0266 5.8791 19.3409 5.90767 19.7123C5.90767 19.9409 5.93624 20.1409 6.0791 19.8266C6.33624 19.3123 6.85052 18.9123 7.05052 18.3123C7.13624 18.0552 7.16481 17.798 7.10767 17.5123C7.02195 17.1695 7.07909 17.1695 7.19338 16.8552C7.79338 17.3409 7.50767 18.2837 7.19338 18.8552C6.90767 19.3695 6.45052 19.8266 6.36481 20.4266C6.25052 21.198 6.76481 21.798 7.56481 21.7409C7.82195 21.7123 8.39338 21.5695 8.42195 21.2837C8.4791 20.8837 8.65052 20.4837 8.85052 20.1409C9.4791 19.0837 10.7648 18.2837 11.022 17.0266C11.1934 16.1695 10.422 15.5695 9.99338 14.9695C9.79338 14.6837 9.76481 14.5409 9.73624 14.198C9.73624 14.0837 9.62195 13.9123 9.53624 14.1123C9.4791 14.2552 9.4791 14.4552 9.4791 14.598C9.0791 14.3695 9.05052 13.8552 9.07909 13.4837C9.13624 12.6266 8.65052 13.9409 8.76481 13.9409C8.50767 13.9409 8.45052 13.0266 8.42195 12.8837C8.42195 12.7695 8.36481 12.2552 8.22195 12.6266C8.22195 12.6266 8.16481 13.0266 8.13624 13.0266C7.90767 13.0266 7.73624 11.9123 7.59338 11.7409C7.47909 11.598 7.2791 11.5695 7.0791 11.4837C6.79338 11.3409 6.59338 11.1123 6.36481 10.9409C6.50767 10.798 7.16481 9.94089 7.33624 10.0266C7.47909 10.1695 7.45052 10.6837 7.8791 10.5123C8.02195 10.398 7.50767 9.68374 7.47909 9.48374C7.45052 9.14089 7.62195 8.8266 7.93624 9.16946C8.16481 9.45517 8.36481 9.79803 8.50767 10.1695C8.65052 10.5409 8.73624 11.0552 8.96481 11.3409C9.25052 11.6837 9.53624 11.998 9.8791 12.3123L10.822 13.1695C10.9077 13.2552 11.1934 13.5409 10.8505 13.5409C10.7077 13.5409 10.7077 13.3409 10.5934 13.3123C10.5077 13.5409 10.5077 13.798 10.5934 14.0552C10.6505 14.198 10.7362 14.3409 10.8505 14.4266C10.9362 14.4837 11.3362 14.7409 11.422 14.598C11.3648 14.7695 11.3648 14.998 11.3648 15.1695C11.3934 15.3409 11.6791 16.1695 11.222 15.798C11.1077 15.998 11.2505 16.198 11.3934 16.3409C11.5648 16.5123 11.6505 16.598 11.7934 16.798C11.9077 16.998 12.1362 17.1409 12.3648 17.198C12.5362 17.2552 12.7362 17.198 12.8791 17.3123C13.0791 17.4837 13.3648 17.5409 13.622 17.5409C13.7934 17.5409 13.7934 17.5123 13.9077 17.6266C14.022 17.7409 14.1934 17.798 14.3362 17.8266C14.7362 17.9123 15.2505 17.8837 15.6505 17.7695C15.2505 18.1123 14.7934 18.4552 14.3362 18.798ZM6.82195 18.0266C6.70767 18.2552 6.62195 18.5409 6.47909 18.7695C6.39338 18.9409 6.19338 19.0837 6.13624 19.2837C6.27909 18.6837 6.59338 18.1695 6.82195 17.598C6.85052 17.7409 6.85052 17.8837 6.82195 18.0266ZM15.6791 17.5695C15.6505 17.598 15.5934 17.598 15.5648 17.6266C15.7362 17.4552 15.9077 17.1695 15.8505 16.9123C15.6791 17.2552 15.4505 17.598 14.9934 17.598C15.8505 17.0837 15.4791 16.0837 15.422 15.2552C15.6791 15.2837 15.9934 15.3409 16.222 15.198C16.022 15.8552 16.622 17.398 15.6791 17.5695ZM17.4505 16.4837C17.3362 16.5123 17.222 16.4837 17.1362 16.5123C17.1934 16.6266 17.3362 16.6552 17.4505 16.6266C16.7362 17.2266 16.2791 16.1409 16.4505 15.5695C16.4791 15.4552 16.5362 15.2552 16.622 15.1695C16.7648 15.0266 17.1934 14.9123 17.422 14.8552C17.422 15.2266 17.0791 15.4266 17.0505 15.798C17.022 16.198 17.3934 16.398 17.7362 16.1695C17.6791 16.3123 17.5934 16.4266 17.4505 16.4837C17.5362 16.4552 17.422 16.4837 17.4505 16.4837ZM17.6791 15.8837C17.4505 16.0266 17.1077 16.1123 17.3077 15.6837C17.422 15.4266 17.6791 15.198 17.622 14.9123C17.6791 15.0552 17.7362 15.2266 17.7934 15.3695C17.822 15.4552 17.8791 15.5409 17.9077 15.6552C17.9648 15.7695 17.7648 15.798 17.6791 15.8837ZM24.4505 15.4837C23.9362 16.7409 23.022 17.7409 22.0505 18.6552C21.822 18.8552 21.5934 19.0266 21.3362 19.2266C21.1362 19.0552 20.9648 18.9123 20.7934 18.7695C20.2505 18.3123 19.7934 17.8266 19.3362 17.2837C18.5934 16.398 17.9648 15.3409 17.8505 14.1695C17.822 13.7409 17.8791 13.2552 18.0791 12.8837C18.3934 12.3409 19.0505 12.0266 19.622 12.3123C19.7077 12.4266 19.622 12.5695 19.5077 12.6266C19.2791 12.7409 19.3077 12.4266 19.1934 12.4266C18.9648 12.6552 19.4505 13.1123 19.622 13.198C19.8505 13.2837 20.1077 13.198 20.2791 13.0837C20.5362 13.1695 20.7934 13.2552 21.0505 13.3123C21.022 12.8552 20.9648 12.3695 21.2791 11.998C21.5648 12.2266 21.3362 12.9695 21.3077 13.2837C21.5362 13.1695 21.7077 12.9409 21.9648 12.9123C21.8791 13.0837 21.7077 13.198 21.7077 13.4266C21.8505 13.4552 22.0505 13.398 22.1934 13.3409C22.1934 13.6552 23.1362 13.3695 23.2791 13.3123C23.5934 13.198 24.1648 12.9123 23.8505 12.5123C23.6791 12.5695 23.7934 12.7695 23.5362 12.7695C23.3648 12.7409 23.222 12.6552 23.2791 12.4837C23.3648 12.2266 23.8505 12.2837 24.022 12.3695C24.5648 12.5695 24.7648 13.2837 24.7934 13.7695C24.822 14.3409 24.6791 14.9409 24.4505 15.4837C24.5077 15.3695 24.3362 15.7409 24.4505 15.4837Z" fill="#5F5F5F"/>
<path d="M35.7821 14.3828C32.9535 14.3828 30.8678 12.7828 30.8678 9.81141C30.8964 6.55427 33.3535 5.1257 36.2964 5.1257C37.0678 5.1257 37.7249 5.21141 38.4678 5.43998L38.2678 7.46855H37.8107C37.5821 6.3257 37.0392 5.95427 35.8392 5.95427C33.7249 5.9257 32.6392 7.61141 32.6392 9.61141C32.6392 11.9543 33.7821 13.5257 36.2392 13.5257C36.5821 13.5257 36.9535 13.4686 37.2964 13.4114V10.24H38.8964C38.8392 10.6686 38.8107 11.1257 38.8107 11.5543C38.8107 12.2971 38.8392 13.0971 38.8964 13.84C37.8678 14.2114 36.8392 14.3828 35.7821 14.3828ZM45.4107 10.9257C45.4107 12.04 45.0678 13.6114 43.6678 13.6114C42.2678 13.6114 41.8964 11.9828 41.8964 10.8686C41.8964 9.75427 42.2392 8.18284 43.6392 8.18284C45.0392 8.18284 45.4107 9.81141 45.4107 10.9257ZM45.7249 5.3257C45.7249 4.86855 45.4964 4.49713 44.9821 4.49713C44.4678 4.49713 44.2392 4.86855 44.2392 5.35427C44.2392 5.81141 44.4392 6.21141 44.9535 6.21141C45.4964 6.21141 45.7249 5.83998 45.7249 5.3257ZM43.2392 5.3257C43.2392 4.86855 43.0107 4.49713 42.4964 4.49713C41.9821 4.49713 41.7535 4.86855 41.7535 5.35427C41.7535 5.81141 41.9821 6.21141 42.4678 6.21141C43.0107 6.21141 43.2392 5.83998 43.2392 5.3257ZM46.9821 10.7257C46.9821 8.78284 45.7821 7.41141 43.8107 7.41141C41.6392 7.41141 40.3535 8.95427 40.3535 11.04C40.3535 12.9543 41.5535 14.3543 43.5249 14.3543C45.6678 14.3543 46.9821 12.8114 46.9821 10.7257ZM51.9821 14.0114C51.6392 14.2114 50.8678 14.3543 50.4678 14.3543C49.2392 14.3543 48.6392 13.64 48.6392 12.44C48.6392 11.1257 48.6964 9.81141 48.7249 8.49713L47.4964 8.29713V7.89713L48.7249 7.63998V5.86855L50.1535 5.61141L50.1249 7.63998H51.8964V8.46855H50.1249C50.1249 9.61141 50.0964 10.7543 50.0964 11.8971C50.0964 12.7257 50.2392 13.5543 51.2107 13.5543C51.4107 13.5543 51.8392 13.4686 52.0107 13.4114C52.0107 13.64 52.0107 13.7543 51.9821 14.0114ZM57.2678 9.9257L54.3821 10.0114C54.4678 9.09713 54.8107 8.15427 55.8964 8.15427C56.9249 8.18284 57.2678 9.03998 57.2678 9.9257ZM58.8106 10.0686C58.8106 8.29713 57.8678 7.43998 55.9821 7.43998C53.9249 7.43998 52.7821 8.95427 52.7821 10.8686C52.7821 12.9828 54.0678 14.3257 56.2392 14.3257C57.0107 14.3257 57.8678 14.1828 58.5535 13.7543L58.6678 12.9257C58.0964 13.24 57.3249 13.44 56.6678 13.44C54.8964 13.44 54.3249 12.2114 54.3249 10.6686L58.7535 10.7257C58.7821 10.5257 58.8106 10.2971 58.8106 10.0686ZM65.0678 10.9543C65.0678 12.0686 64.6678 13.64 63.2964 13.64C61.9821 13.64 62.0964 12.2686 62.0964 11.3543C62.0964 10.4114 62.0678 9.18284 62.0964 9.09713C62.4107 8.81141 62.9821 8.58284 63.4392 8.58284C64.7535 8.55427 65.0678 9.86856 65.0678 10.9543ZM66.6392 10.5543C66.6392 8.86856 65.8392 7.41141 63.9821 7.41141C63.0964 7.41141 62.6107 7.7257 62.0678 8.43998L62.0964 4.29713C61.9249 4.29713 61.7535 4.26855 61.5821 4.26855C60.9249 4.26855 60.2392 4.3257 59.6107 4.46855V4.89713C60.3249 4.9257 60.5821 5.03998 60.6964 5.75427C60.8107 6.49713 60.7821 7.41141 60.7821 8.03998C60.7821 9.95427 60.6964 11.8971 60.6392 13.8114C61.0678 14.0686 61.8107 14.3543 63.0678 14.3543C65.2964 14.3543 66.6392 12.7543 66.6392 10.5543ZM72.6964 10.9257C72.6964 12.04 72.3535 13.6114 70.9535 13.6114C69.5535 13.6114 69.1821 11.9828 69.1821 10.8686C69.1821 9.75427 69.5249 8.18284 70.9249 8.18284C72.3249 8.18284 72.6964 9.81141 72.6964 10.9257ZM74.2964 10.7257C74.2964 8.81141 73.0678 7.43998 71.0964 7.43998C68.9249 7.43998 67.6107 8.98284 67.6107 11.0686C67.6107 12.9828 68.8392 14.3828 70.8107 14.3828C72.9535 14.3543 74.2964 12.8114 74.2964 10.7257ZM79.8964 9.18284H79.5249C79.3535 8.81141 79.1535 8.66856 78.7535 8.66856C78.2107 8.66856 77.8392 9.03998 77.5535 9.43998V14.24H75.9821C76.0964 12.8114 76.1535 11.3543 76.1535 9.9257C76.1535 8.98284 76.2678 8.21141 75.0678 8.15427V7.75427C75.7249 7.55427 76.4964 7.5257 77.1535 7.5257H77.4964L77.5249 8.66856C77.8964 7.78284 78.6678 7.43998 79.5821 7.43998C79.7249 7.43998 79.8678 7.43998 80.0107 7.49713L79.8964 9.18284ZM84.5249 9.7257C84.5249 10.4114 84.2106 11.2114 83.4106 11.2114C82.5535 11.2114 82.2678 10.1543 82.2678 9.43998C82.2678 8.75427 82.5821 7.89713 83.3821 7.89713C84.2392 7.9257 84.5249 9.06855 84.5249 9.7257ZM86.8678 15.04C86.8678 14.3828 86.6106 13.8686 86.1821 13.5828C85.0678 12.7828 82.4392 13.64 82.4392 12.5257C82.4392 12.24 82.5535 11.9828 82.7535 11.8114C84.3249 12.0114 86.0392 11.3257 86.0392 9.49713C86.0392 9.18284 85.9821 8.89713 85.8678 8.61141H86.7249V7.75427H85.1821C84.6392 7.38284 84.1249 7.26855 83.4964 7.26855C82.0107 7.26855 80.7535 8.03998 80.7535 9.63998C80.7535 10.6686 81.2392 11.3257 82.2106 11.64C81.7535 11.9828 81.5821 12.4114 81.5821 12.8686C81.5821 13.3257 81.7535 13.7543 82.1821 13.9543C81.2964 14.0686 80.5535 14.3828 80.5535 15.3828C80.5535 16.9543 82.4106 17.3543 83.6392 17.3543C85.1249 17.3543 86.8678 16.8114 86.8678 15.04ZM85.3821 15.3543C85.3821 16.2971 84.5249 16.6686 83.6964 16.6686C82.9249 16.6686 82.0964 16.2971 82.0964 15.4114C82.0964 14.4686 82.9249 14.2686 83.7249 14.2686C84.4392 14.3257 85.3821 14.4114 85.3821 15.3543ZM89.4678 14.3543C88.7249 14.3543 88.0678 14.24 87.3821 13.8686L87.5535 12.5543C88.0678 13.0971 88.6964 13.5828 89.4964 13.5828C90.0678 13.5828 90.6106 13.2686 90.6106 12.64C90.6106 11.8971 89.9821 11.64 89.2678 11.3828C88.4106 11.0686 87.4106 10.7257 87.4106 9.43998C87.4106 7.86855 88.8106 7.38284 90.1249 7.38284C90.7249 7.38284 91.3249 7.46855 91.8964 7.7257L91.7249 9.29713H91.2678C91.1535 8.61141 90.8106 8.15427 90.0392 8.15427C89.4964 8.15427 88.9535 8.49713 88.9535 9.09713C88.9535 9.81141 89.6106 10.04 90.3535 10.2971C91.2392 10.5828 92.2106 10.9257 92.2106 12.24C92.2392 13.8114 90.8392 14.3543 89.4678 14.3543ZM33.5249 27.64C32.6107 27.64 31.7249 27.4686 30.9535 26.9543L31.2392 25.5257C31.8678 26.3543 32.4964 26.8114 33.5535 26.8114C34.4678 26.8114 35.1535 26.2971 35.1535 25.3543C35.1535 24.2114 34.2107 23.9257 33.2392 23.5828C32.1535 23.2114 31.0107 22.8114 31.0107 21.1257C31.0107 19.24 32.7249 18.4114 34.3821 18.4114C35.0678 18.4114 35.8392 18.44 36.4107 18.8114L36.2107 20.6971H35.7821C35.7535 20.5828 35.7535 20.4971 35.7249 20.4114C35.5535 19.64 35.1821 19.24 34.2678 19.24C33.4107 19.24 32.6964 19.7257 32.6964 20.64C32.6964 21.8114 33.7249 22.0114 34.7535 22.3828C35.7821 22.7257 36.8392 23.2114 36.8392 24.8971C36.7821 26.8114 35.2392 27.64 33.5249 27.64ZM41.7249 27.2686C41.3821 27.4686 40.6107 27.6114 40.2107 27.6114C38.9821 27.6114 38.3821 26.8971 38.3821 25.6971C38.3821 24.3828 38.4392 23.0686 38.4678 21.7543L37.2392 21.5543V21.1543L38.4678 20.8971V19.1257L39.8964 18.8686L39.8678 20.8971H41.6392V21.7257H39.8678C39.8678 22.8686 39.8392 24.0114 39.8392 25.1543C39.8392 25.9828 39.9821 26.8114 40.9535 26.8114C41.1535 26.8114 41.5821 26.7257 41.7535 26.6686C41.7535 26.9257 41.7535 27.04 41.7249 27.2686ZM46.3249 24.7828C46.3249 25.7543 46.2392 26.7257 45.0392 26.7257C44.4107 26.7257 44.0107 26.2971 44.0107 25.64C44.0107 25.0971 44.2964 24.8971 44.7249 24.6971C45.2107 24.44 45.7821 24.2971 46.3535 24.24V24.7828H46.3249ZM48.7821 27.4971V27.04C47.6678 27.0114 47.7249 26.2114 47.7249 25.2971C47.7249 24.6114 47.7821 23.9543 47.7821 23.2686C47.7821 21.4686 47.1535 20.6971 45.2964 20.6971C44.4107 20.6971 43.5535 20.8686 42.8678 21.4971L43.0678 22.5543H43.5249C43.7535 21.8971 44.2964 21.5828 44.9821 21.5828C46.2678 21.5828 46.3249 22.4686 46.2964 23.5828C46.2964 23.5828 44.2678 23.84 43.4107 24.24C42.7821 24.5257 42.4392 25.04 42.4392 25.7828C42.4392 27.0114 43.3821 27.64 44.5249 27.64C45.3821 27.64 46.0107 27.3543 46.4678 26.64L46.4964 27.4971H48.7821ZM54.0107 23.3828V26.0971C53.6964 26.5257 53.1821 26.6971 52.6392 26.6971C51.3821 26.6971 50.9249 25.3257 50.9249 24.2686C50.9249 23.0971 51.3535 21.4686 52.7821 21.4686C54.0392 21.4686 54.0107 22.4114 54.0107 23.3828ZM56.4964 27.5257V27.0971C56.2392 27.0686 55.9535 26.9828 55.7535 26.84C55.4392 26.6114 55.4107 26.1828 55.4107 25.7543C55.3249 23.1543 55.4106 20.1543 55.4392 17.5828C54.8964 17.5257 53.6964 17.6114 52.8964 17.8114V18.2114C54.0678 18.2686 54.0392 18.9543 54.0392 19.84V20.9828C53.6392 20.8114 53.2107 20.7828 52.8107 20.7828C50.6964 20.7828 49.3535 22.2114 49.3535 24.3828C49.3535 26.1543 50.3535 27.6686 52.2392 27.6686C52.9821 27.6686 53.6964 27.4114 54.1821 26.84C54.1821 26.84 54.2107 27.0971 54.2107 27.5543H56.4964V27.5257Z" fill="#121212"/>
</svg>
