<svg width="30" height="30" viewBox="0 0 30 30" fill="none" xmlns="http://www.w3.org/2000/svg">
<g clip-path="url(#clip0_1243_366)">
<path d="M14.9207 29.8228C23.1053 29.8228 29.7402 23.1878 29.7402 15.0032C29.7402 6.81855 23.1053 0.183594 14.9207 0.183594C6.73603 0.183594 0.101074 6.81855 0.101074 15.0032C0.101074 23.1878 6.73603 29.8228 14.9207 29.8228Z" fill="#E4E9EB"/>
<path d="M14.9206 25.1568C20.5063 25.1568 25.0345 20.6109 25.0345 15.0032C25.0345 9.39553 20.5063 4.84961 14.9206 4.84961C9.3348 4.84961 4.80664 9.39553 4.80664 15.0032C4.80664 20.6109 9.3348 25.1568 14.9206 25.1568Z" fill="#E51236"/>
<path d="M14.9485 13.0701C15.3258 13.0701 15.6945 13.182 16.0081 13.3916C16.3218 13.6011 16.5662 13.899 16.7106 14.2475C16.8549 14.596 16.8927 14.9795 16.8191 15.3494C16.7455 15.7194 16.5639 16.0592 16.2972 16.326C16.0304 16.5927 15.6906 16.7743 15.3206 16.8479C14.9507 16.9215 14.5672 16.8837 14.2187 16.7394C13.8702 16.595 13.5723 16.3506 13.3628 16.0369C13.1532 15.7233 13.0413 15.3546 13.0413 14.9774C13.0413 14.4715 13.2423 13.9864 13.5999 13.6287C13.9576 13.2711 14.4427 13.0701 14.9485 13.0701ZM14.9485 12.1938C14.398 12.1938 13.8599 12.3571 13.4021 12.663C12.9444 12.9688 12.5876 13.4035 12.3769 13.9122C12.1662 14.4208 12.1111 14.9804 12.2185 15.5204C12.3259 16.0603 12.591 16.5563 12.9803 16.9456C13.3696 17.3349 13.8656 17.6 14.4055 17.7074C14.9455 17.8148 15.5051 17.7597 16.0137 17.549C16.5224 17.3383 16.9571 16.9815 17.2629 16.5238C17.5688 16.066 17.7321 15.5279 17.7321 14.9774C17.7321 14.2391 17.4388 13.5311 16.9168 13.0091C16.3948 12.4871 15.6868 12.1938 14.9485 12.1938Z" fill="white"/>
<path d="M17.8351 11.5244C17.7128 11.5244 17.5932 11.5607 17.4915 11.6287C17.3897 11.6966 17.3105 11.7932 17.2636 11.9063C17.2168 12.0193 17.2046 12.1437 17.2284 12.2636C17.2523 12.3836 17.3112 12.4938 17.3977 12.5804C17.4842 12.6669 17.5944 12.7258 17.7144 12.7496C17.8344 12.7735 17.9588 12.7613 18.0718 12.7144C18.1848 12.6676 18.2815 12.5883 18.3494 12.4866C18.4174 12.3849 18.4537 12.2653 18.4537 12.143C18.4537 11.9789 18.3885 11.8216 18.2725 11.7056C18.1565 11.5896 17.9992 11.5244 17.8351 11.5244Z" fill="white"/>
<path d="M17.4742 10.5319C17.9831 10.5326 18.471 10.735 18.8308 11.0949C19.1907 11.4547 19.3931 11.9426 19.3938 12.4515V17.503C19.3933 18.012 19.1909 18.5 18.831 18.86C18.4711 19.2199 17.9832 19.4224 17.4742 19.4231H12.4227C11.9138 19.4224 11.4259 19.22 11.0661 18.8601C10.7062 18.5003 10.5038 18.0124 10.5031 17.5035V12.452C10.5036 11.943 10.706 11.455 11.0659 11.0951C11.4257 10.7351 11.9137 10.5326 12.4227 10.5319H17.4742ZM17.4742 9.67312H12.4227C11.6856 9.67394 10.9788 9.96675 10.4572 10.4875C9.93547 11.0082 9.64134 11.7144 9.63916 12.4515V17.503C9.64121 18.2402 9.93527 18.9465 10.457 19.4674C10.9787 19.9882 11.6855 20.2811 12.4227 20.2819H17.4742C18.2106 20.2798 18.9162 19.9864 19.4369 19.4657C19.9576 18.945 20.251 18.2394 20.2531 17.503V12.4515C20.251 11.7151 19.9576 11.0095 19.4369 10.4888C18.9162 9.96808 18.2106 9.67465 17.4742 9.67261V9.67312Z" fill="white"/>
</g>
<defs>
<clipPath id="clip0_1243_366">
<rect width="30" height="30" fill="white"/>
</clipPath>
</defs>
</svg>
