<svg width="106" height="26" viewBox="0 0 106 26" fill="none" xmlns="http://www.w3.org/2000/svg">
<path d="M48.0208 25.2223C47.6272 25.2223 47.2332 25.072 46.9331 24.7707L42.2978 20.1226C41.6986 19.5207 41.6986 18.5432 42.2999 17.9432C42.9007 17.3406 43.8741 17.3406 44.4749 17.9432L49.1101 22.5906C49.7093 23.193 49.7093 24.1706 49.1083 24.7707C48.8076 25.072 48.4145 25.2223 48.0208 25.2223" fill="#E51236"/>
<path d="M93.2046 25.929C86.152 25.929 80.4131 20.1146 80.4131 12.9663C80.4131 10.5628 81.0662 8.21611 82.3031 6.17995C82.7446 5.45155 83.69 5.22124 84.4184 5.66333C85.1425 6.1065 85.3743 7.0551 84.9325 7.78213C83.9885 9.33611 83.4902 11.1274 83.4902 12.9663C83.4902 18.413 87.8468 22.8457 93.2046 22.8457C98.5624 22.8457 102.923 18.413 102.923 12.9663C102.923 7.51969 98.5621 3.08332 93.2046 3.08332C91.639 3.08469 90.146 3.45073 88.7668 4.17347C88.0123 4.5695 87.0838 4.27386 86.6915 3.51975C86.2976 2.76533 86.5895 1.83386 87.3421 1.4389C89.1388 0.499323 91.1669 0.00137723 93.2033 0C100.26 0 106 5.81575 106 12.9663C106 20.1169 100.26 25.929 93.2046 25.929Z" fill="#E51236"/>
<path d="M41.7825 0.746094H30.8209C30.1818 0.746094 29.6349 1.13509 29.4021 1.6898C29.3186 1.88047 29.2705 2.08981 29.2705 2.31063V23.6369C29.2705 24.4891 29.9584 25.179 30.809 25.179C31.6596 25.179 32.3474 24.4891 32.3474 23.6369V3.83018H41.7825C44.3619 3.83018 46.4612 5.93275 46.4612 8.5195C46.4612 11.1062 44.3619 13.2094 41.7825 13.2094H36.3949C35.5444 13.2094 34.8563 13.8991 34.8563 14.7513C34.8563 15.6035 35.5444 16.2932 36.3949 16.2932H41.7825C46.0581 16.2932 49.5382 12.8056 49.5382 8.5195C49.5382 4.2334 46.0581 0.746094 41.7825 0.746094" fill="#E51236"/>
<path d="M74.1389 12.8291H67.9068C67.0578 12.8291 66.3682 13.5186 66.3682 14.3711C66.3682 15.2237 67.0578 15.9126 67.9068 15.9126H72.5997V23.7027C72.5997 24.5544 73.2878 25.2449 74.1387 25.2449C74.9896 25.2449 75.6774 24.5544 75.6774 23.7027V14.3711C75.6774 13.5186 74.9874 12.8291 74.1387 12.8291" fill="#E51236"/>
<path d="M66.5279 25.9999C59.4722 25.9999 53.7334 20.184 53.7334 13.0333C53.7334 5.88254 59.472 0.0703125 66.5279 0.0703125C69.3058 0.0703125 71.9489 0.958475 74.1725 2.64023C74.8497 3.15271 74.9833 4.1206 74.4735 4.79942C73.9619 5.4787 72.9974 5.6152 72.318 5.10104C70.6326 3.8274 68.6311 3.15378 66.5281 3.15378C61.1703 3.15378 56.8098 7.58618 56.8098 13.0333C56.8098 18.4804 61.1703 22.9168 66.5281 22.9168C67.2056 22.9168 67.8893 22.8442 68.5561 22.7011C69.3919 22.5157 70.2058 23.053 70.3833 23.8862C70.5607 24.7189 70.0319 25.5375 69.1992 25.7159C68.322 25.9047 67.4219 25.9999 66.5281 25.9999" fill="#E51236"/>
<path d="M12.4837 25.1772C11.634 25.1772 10.9453 24.4874 10.9453 23.6353V14.4269C10.9453 13.5756 11.634 12.8857 12.4837 12.8857C13.3333 12.8857 14.0226 13.5756 14.0226 14.4269V23.6353C14.0226 24.4874 13.3335 25.1772 12.4837 25.1772Z" fill="#E51236"/>
<path d="M15.6981 10.4284C15.2572 10.4284 14.8194 10.2388 14.5155 9.87357C13.9711 9.21786 14.0609 8.24706 14.7136 7.70183L22.5997 1.12585C23.2522 0.580771 24.2217 0.668914 24.7654 1.32494C25.3096 1.97927 25.2204 2.95038 24.5673 3.49469L16.6818 10.0722C16.3941 10.3112 16.0455 10.4284 15.6981 10.4284" fill="#E51236"/>
<path d="M9.42875 10.4289C9.0815 10.4289 8.73318 10.3117 8.44564 10.0726L0.554621 3.49512C-0.0983442 2.95234 -0.187676 1.97955 0.355494 1.32536C0.898512 0.671026 1.86941 0.5812 2.52253 1.12628L10.4135 7.70226C11.0661 8.24596 11.1558 9.21828 10.6127 9.874C10.3082 10.2393 9.86976 10.4289 9.42875 10.4289" fill="#E51236"/>
</svg>
