<svg width="34" height="32" viewBox="0 0 34 32" fill="none" xmlns="http://www.w3.org/2000/svg">
<g clip-path="url(#clip0_279_1460)">
<path fill-rule="evenodd" clip-rule="evenodd" d="M16.9122 32C15.757 32 14.8203 31.102 14.8203 29.9929V18.0063C14.8203 16.898 15.757 16 16.9122 16C18.0682 16 19.0049 16.898 19.0049 18.0063V29.9929C19.0049 31.102 18.0682 32 16.9122 32Z" fill="#E51236"/>
<path fill-rule="evenodd" clip-rule="evenodd" d="M21.2599 12.5955C20.6637 12.5955 20.0725 12.3513 19.6613 11.8813C18.9256 11.0381 19.0469 9.78932 19.9288 9.08781L30.5902 0.629237C31.4721 -0.0715059 32.7834 0.0418731 33.5184 0.885131C34.2541 1.72681 34.1335 2.97635 33.2508 3.6763L22.5902 12.1372C22.2013 12.4451 21.7298 12.5955 21.2599 12.5955Z" fill="#E51236"/>
<mask id="mask0_279_1460" style="mask-type:alpha" maskUnits="userSpaceOnUse" x="0" y="0" width="15" height="13">
<path fill-rule="evenodd" clip-rule="evenodd" d="M0 12.8193V0.15625H14.7847V12.8193H0Z" fill="white"/>
</mask>
<g mask="url(#mask0_279_1460)">
<path fill-rule="evenodd" clip-rule="evenodd" d="M12.7096 12.8193C12.242 12.8193 11.7719 12.6661 11.3849 12.3523L0.747866 3.7291C-0.132309 3.01813 -0.253343 1.74222 0.479449 0.884395C1.21142 0.0273683 2.52056 -0.0905927 3.39991 0.623595L14.037 9.24438C14.9171 9.95778 15.0381 11.2321 14.3053 12.0915C13.8953 12.5706 13.3041 12.8193 12.7096 12.8193Z" fill="#E51236"/>
</g>
</g>
<defs>
<clipPath id="clip0_279_1460">
<rect width="34" height="32" fill="white"/>
</clipPath>
</defs>
</svg>
