<svg width="90" height="32" viewBox="0 0 90 32" fill="none" xmlns="http://www.w3.org/2000/svg">
<g clip-path="url(#clip0_279_1459)">
<path fill-rule="evenodd" clip-rule="evenodd" d="M16.9122 32C15.757 32 14.8203 31.102 14.8203 29.9929V18.0063C14.8203 16.898 15.757 16 16.9122 16C18.0682 16 19.0049 16.898 19.0049 18.0063V29.9929C19.0049 31.102 18.0682 32 16.9122 32Z" fill="#E51236"/>
<path fill-rule="evenodd" clip-rule="evenodd" d="M21.2599 12.5955C20.6637 12.5955 20.0725 12.3513 19.6613 11.8813C18.9256 11.0381 19.0469 9.78932 19.9288 9.08781L30.5902 0.629237C31.4721 -0.0715059 32.7834 0.0418731 33.5184 0.885131C34.2541 1.72681 34.1335 2.97635 33.2508 3.6763L22.5902 12.1372C22.2013 12.4451 21.7298 12.5955 21.2599 12.5955Z" fill="#E51236"/>
<mask id="mask0_279_1459" style="mask-type:alpha" maskUnits="userSpaceOnUse" x="0" y="0" width="15" height="13">
<path fill-rule="evenodd" clip-rule="evenodd" d="M0 12.8193V0.15625H14.7847V12.8193H0Z" fill="white"/>
</mask>
<g mask="url(#mask0_279_1459)">
<path fill-rule="evenodd" clip-rule="evenodd" d="M12.7096 12.8193C12.242 12.8193 11.7719 12.6661 11.3849 12.3523L0.747866 3.7291C-0.132309 3.01813 -0.253343 1.74222 0.479449 0.884395C1.21142 0.0273683 2.52056 -0.0905927 3.39991 0.623595L14.037 9.24438C14.9171 9.95778 15.0381 11.2321 14.3053 12.0915C13.8953 12.5706 13.3041 12.8193 12.7096 12.8193Z" fill="#E51236"/>
</g>
</g>
<path fill-rule="evenodd" clip-rule="evenodd" d="M60.3188 8H46.7535C45.7703 8 44.966 8.79168 44.966 9.77716C44.966 10.7626 45.7703 11.5543 46.7535 11.5543H60.3188C63.5877 11.5543 66.2305 14.1816 66.2305 17.4137C66.2305 18.3384 66.0149 19.2113 65.6313 19.9876C65.3232 20.6109 65.3681 21.4328 65.93 21.9901C66.7363 22.7899 68.228 22.7789 68.82 21.596C69.451 20.3354 69.8055 18.9147 69.8055 17.4137C69.8055 12.2107 65.5542 8 60.3188 8Z" fill="#001A52"/>
<path fill-rule="evenodd" clip-rule="evenodd" d="M38 17.859C38 23.062 42.2513 27.2727 47.4867 27.2727H56.7123C57.6956 27.2727 58.4999 26.481 58.4999 25.4956C58.4999 24.5101 57.6956 23.7184 56.7123 23.7184H47.4867C44.2178 23.7184 41.575 21.0911 41.575 17.859C41.575 16.9343 41.7906 16.0614 42.1743 15.2852C42.4823 14.6618 42.4374 13.8399 41.8755 13.2826C41.0692 12.4829 39.5775 12.4939 38.9855 13.6767C38.3545 14.9373 38 16.358 38 17.859Z" fill="#001A52"/>
<path fill-rule="evenodd" clip-rule="evenodd" d="M80.5133 8.72727H71.2877C70.3044 8.72727 69.5001 9.51895 69.5001 10.5044C69.5001 11.4899 70.3044 12.2816 71.2877 12.2816H80.5133C83.7822 12.2816 86.425 14.9089 86.425 18.141C86.425 19.0657 86.2094 19.9386 85.8257 20.7148C85.5177 21.3382 85.5626 22.1601 86.1245 22.7174C86.9308 23.5171 88.4225 23.5061 89.0145 22.3233C89.6455 21.0627 90 19.642 90 18.141C90 12.938 85.7487 8.72727 80.5133 8.72727Z" fill="#E51236"/>
<path fill-rule="evenodd" clip-rule="evenodd" d="M58.1945 18.5863C58.1945 23.7893 62.4458 28 67.6812 28H81.2465C82.2297 28 83.034 27.2083 83.034 26.2228C83.034 25.2374 82.2297 24.4457 81.2465 24.4457H67.6812C64.4123 24.4457 61.7695 21.8184 61.7695 18.5863C61.7695 17.6616 61.9851 16.7887 62.3687 16.0124C62.6768 15.3891 62.6319 14.5672 62.07 14.0099C61.2637 13.2101 59.772 13.2211 59.18 14.404C58.549 15.6646 58.1945 17.0853 58.1945 18.5863Z" fill="#E51236"/>
<defs>
<clipPath id="clip0_279_1459">
<rect width="34" height="32" fill="white"/>
</clipPath>
</defs>
</svg>
