<svg width="24" height="25" viewBox="0 0 24 25" fill="none" xmlns="http://www.w3.org/2000/svg">
<path d="M12 6.73145C11.2583 6.73145 10.5333 6.95138 9.91661 7.36343C9.29993 7.77549 8.81928 8.36116 8.53545 9.04638C8.25162 9.73161 8.17736 10.4856 8.32205 11.213C8.46675 11.9405 8.8239 12.6086 9.34835 13.1331C9.8728 13.6575 10.541 14.0147 11.2684 14.1594C11.9958 14.3041 12.7498 14.2298 13.4351 13.946C14.1203 13.6622 14.706 13.1815 15.118 12.5648C15.5301 11.9481 15.75 11.2231 15.75 10.4814C15.75 9.48688 15.3549 8.53306 14.6517 7.82979C13.9484 7.12653 12.9946 6.73145 12 6.73145ZM12 12.7314C11.555 12.7314 11.12 12.5995 10.75 12.3523C10.38 12.105 10.0916 11.7536 9.92127 11.3425C9.75097 10.9313 9.70642 10.4789 9.79323 10.0425C9.88005 9.60603 10.0943 9.20512 10.409 8.89045C10.7237 8.57579 11.1246 8.3615 11.561 8.27468C11.9975 8.18786 12.4499 8.23242 12.861 8.40272C13.2722 8.57301 13.6236 8.8614 13.8708 9.23141C14.118 9.60142 14.25 10.0364 14.25 10.4814C14.25 11.0782 14.0129 11.6505 13.591 12.0724C13.169 12.4944 12.5967 12.7314 12 12.7314ZM12 2.23145C9.81273 2.23393 7.71575 3.10392 6.16911 4.65056C4.62247 6.19719 3.75248 8.29417 3.75 10.4814C3.75 13.4252 5.11031 16.5452 7.6875 19.5049C8.84552 20.8423 10.1489 22.0466 11.5734 23.0955C11.6995 23.1838 11.8498 23.2312 12.0037 23.2312C12.1577 23.2312 12.308 23.1838 12.4341 23.0955C13.856 22.0461 15.1568 20.8419 16.3125 19.5049C18.8859 16.5452 20.25 13.4252 20.25 10.4814C20.2475 8.29417 19.3775 6.19719 17.8309 4.65056C16.2843 3.10392 14.1873 2.23393 12 2.23145ZM12 21.5439C10.4503 20.3252 5.25 15.8486 5.25 10.4814C5.25 8.69123 5.96116 6.97434 7.22703 5.70847C8.4929 4.4426 10.2098 3.73145 12 3.73145C13.7902 3.73145 15.5071 4.4426 16.773 5.70847C18.0388 6.97434 18.75 8.69123 18.75 10.4814C18.75 15.8468 13.5497 20.3252 12 21.5439Z" fill="black"/>
</svg>
