<svg width="30" height="30" viewBox="0 0 30 30" fill="none" xmlns="http://www.w3.org/2000/svg">
<g id="SlidersHorizontal">
<path id="Vector" d="M4.6875 10.3125H8.55469C8.76122 11.1192 9.23034 11.8341 9.8881 12.3447C10.5459 12.8553 11.3548 13.1324 12.1875 13.1324C13.0202 13.1324 13.8291 12.8553 14.4869 12.3447C15.1447 11.8341 15.6138 11.1192 15.8203 10.3125H25.3125C25.5611 10.3125 25.7996 10.2138 25.9754 10.0379C26.1512 9.86213 26.25 9.62367 26.25 9.37503C26.25 9.12639 26.1512 8.88793 25.9754 8.71212C25.7996 8.5363 25.5611 8.43753 25.3125 8.43753H15.8203C15.6138 7.63089 15.1447 6.91593 14.4869 6.40537C13.8291 5.8948 13.0202 5.61768 12.1875 5.61768C11.3548 5.61768 10.5459 5.8948 9.8881 6.40537C9.23034 6.91593 8.76122 7.63089 8.55469 8.43753H4.6875C4.43886 8.43753 4.2004 8.5363 4.02459 8.71212C3.84877 8.88793 3.75 9.12639 3.75 9.37503C3.75 9.62367 3.84877 9.86213 4.02459 10.0379C4.2004 10.2138 4.43886 10.3125 4.6875 10.3125ZM12.1875 7.50003C12.5583 7.50003 12.9209 7.61 13.2292 7.81602C13.5375 8.02205 13.7779 8.31489 13.9198 8.6575C14.0617 9.00011 14.0988 9.37711 14.0265 9.74082C13.9541 10.1045 13.7755 10.4386 13.5133 10.7009C13.2511 10.9631 12.917 11.1417 12.5533 11.214C12.1896 11.2863 11.8126 11.2492 11.47 11.1073C11.1274 10.9654 10.8345 10.7251 10.6285 10.4167C10.4225 10.1084 10.3125 9.74587 10.3125 9.37503C10.3125 8.87775 10.51 8.40083 10.8617 8.0492C11.2133 7.69757 11.6902 7.50003 12.1875 7.50003ZM25.3125 19.6875H23.3203C23.1138 18.8809 22.6447 18.1659 21.9869 17.6554C21.3291 17.1448 20.5202 16.8677 19.6875 16.8677C18.8548 16.8677 18.0459 17.1448 17.3881 17.6554C16.7303 18.1659 16.2612 18.8809 16.0547 19.6875H4.6875C4.43886 19.6875 4.2004 19.7863 4.02459 19.9621C3.84877 20.1379 3.75 20.3764 3.75 20.625C3.75 20.8737 3.84877 21.1121 4.02459 21.2879C4.2004 21.4638 4.43886 21.5625 4.6875 21.5625H16.0547C16.2612 22.3692 16.7303 23.0841 17.3881 23.5947C18.0459 24.1053 18.8548 24.3824 19.6875 24.3824C20.5202 24.3824 21.3291 24.1053 21.9869 23.5947C22.6447 23.0841 23.1138 22.3692 23.3203 21.5625H25.3125C25.5611 21.5625 25.7996 21.4638 25.9754 21.2879C26.1512 21.1121 26.25 20.8737 26.25 20.625C26.25 20.3764 26.1512 20.1379 25.9754 19.9621C25.7996 19.7863 25.5611 19.6875 25.3125 19.6875ZM19.6875 22.5C19.3167 22.5 18.9541 22.3901 18.6458 22.184C18.3375 21.978 18.0971 21.6852 17.9552 21.3426C17.8133 20.9999 17.7762 20.6229 17.8485 20.2592C17.9209 19.8955 18.0995 19.5614 18.3617 19.2992C18.6239 19.037 18.958 18.8584 19.3217 18.7861C19.6854 18.7137 20.0624 18.7508 20.405 18.8928C20.7476 19.0347 21.0405 19.275 21.2465 19.5833C21.4525 19.8917 21.5625 20.2542 21.5625 20.625C21.5625 21.1223 21.365 21.5992 21.0133 21.9509C20.6617 22.3025 20.1848 22.5 19.6875 22.5Z" fill="#5E5E5E"/>
</g>
</svg>
